<svg xmlns="http://www.w3.org/2000/svg" xmlns:xlink="http://www.w3.org/1999/xlink" width="500" zoomAndPan="magnify" viewBox="0 0 375 374.999991" height="500" preserveAspectRatio="xMidYMid meet" version="1.0"><defs><g/><clipPath id="b23eb44d3f"><path d="M 116 294 L 268 294 L 268 339.125 L 116 339.125 Z M 116 294 " clip-rule="nonzero"/></clipPath></defs><path fill="#fdff00" d="M 163.128906 112.546875 L 184.109375 46.757812 C 185.136719 43.53125 189.71875 43.574219 190.683594 46.820312 L 210.265625 112.613281 C 210.921875 114.820312 209.269531 117.039062 206.96875 117.039062 L 166.40625 117.039062 C 164.078125 117.039062 162.421875 114.769531 163.128906 112.546875 Z M 163.128906 112.546875 " fill-opacity="1" fill-rule="nonzero"/><path fill="#fdff00" d="M 251.761719 131.933594 L 311.210938 96.875 C 314.128906 95.15625 317.511719 98.242188 316.070312 101.308594 L 286.863281 163.421875 C 285.882812 165.503906 283.171875 166.054688 281.457031 164.519531 L 251.214844 137.46875 C 249.480469 135.914062 249.753906 133.117188 251.761719 131.933594 Z M 251.761719 131.933594 " fill-opacity="1" fill-rule="nonzero"/><path fill="#fdff00" d="M 86.363281 166.738281 L 58.199219 103.695312 C 56.816406 100.601562 60.261719 97.578125 63.144531 99.355469 L 121.546875 135.351562 C 123.507812 136.558594 123.753906 139.3125 122.039062 140.847656 L 91.796875 167.902344 C 90.058594 169.457031 87.3125 168.867188 86.363281 166.738281 Z M 86.363281 166.738281 " fill-opacity="1" fill-rule="nonzero"/><path fill="#fdff00" d="M 76.367188 260.21875 L 10.628906 239.222656 C 7.40625 238.191406 7.449219 233.609375 10.695312 232.640625 L 76.429688 213.042969 C 78.636719 212.386719 80.851562 214.039062 80.851562 216.34375 L 80.851562 256.9375 C 80.851562 259.269531 78.585938 260.929688 76.367188 260.21875 Z M 76.367188 260.21875 " fill-opacity="1" fill-rule="nonzero"/><path fill="#fdff00" d="M 282.625 229.546875 C 281.121094 278.429688 240.308594 316.835938 191.464844 315.332031 C 142.621094 313.824219 104.25 272.976562 105.753906 224.09375 C 107.257812 175.207031 148.070312 136.800781 196.914062 138.308594 C 245.753906 139.8125 284.128906 180.660156 282.625 229.546875 Z M 282.625 229.546875 " fill-opacity="1" fill-rule="nonzero"/><path fill="#fdff00" d="M 296.914062 209.714844 L 362.648438 230.714844 C 365.875 231.742188 365.828125 236.324219 362.585938 237.292969 L 296.851562 256.890625 C 294.644531 257.546875 292.425781 255.894531 292.425781 253.589844 L 292.425781 212.996094 C 292.425781 210.664062 294.695312 209.007812 296.914062 209.714844 Z M 296.914062 209.714844 " fill-opacity="1" fill-rule="nonzero"/><g clip-path="url(#b23eb44d3f)"><path fill="#09a6f3" d="M 267.214844 299.457031 C 268.726562 297.257812 267.09375 294.363281 264.425781 294.363281 L 119.574219 294.363281 C 116.910156 294.363281 115.277344 297.257812 116.785156 299.457031 C 133.214844 323.410156 160.777344 339.125 192 339.125 C 223.226562 339.125 250.785156 323.410156 267.214844 299.457031 Z M 267.214844 299.457031 " fill-opacity="1" fill-rule="evenodd"/></g><path fill="#09a6f3" d="M 55.050781 290.917969 L 330.269531 290.917969 C 330.726562 290.917969 331.164062 291.007812 331.585938 291.179688 C 332.007812 291.355469 332.378906 291.605469 332.703125 291.929688 C 333.027344 292.25 333.273438 292.621094 333.449219 293.042969 C 333.625 293.464844 333.710938 293.90625 333.710938 294.363281 C 333.710938 294.820312 333.625 295.257812 333.449219 295.679688 C 333.273438 296.101562 333.027344 296.472656 332.703125 296.796875 C 332.378906 297.121094 332.007812 297.367188 331.585938 297.542969 C 331.164062 297.71875 330.726562 297.804688 330.269531 297.804688 L 55.050781 297.804688 C 54.59375 297.804688 54.15625 297.71875 53.734375 297.542969 C 53.3125 297.367188 52.941406 297.121094 52.617188 296.796875 C 52.296875 296.472656 52.046875 296.101562 51.871094 295.679688 C 51.699219 295.257812 51.609375 294.820312 51.609375 294.363281 C 51.609375 293.90625 51.699219 293.464844 51.871094 293.042969 C 52.046875 292.621094 52.296875 292.25 52.617188 291.929688 C 52.941406 291.605469 53.3125 291.355469 53.734375 291.179688 C 54.15625 291.007812 54.59375 290.917969 55.050781 290.917969 Z M 55.050781 290.917969 " fill-opacity="1" fill-rule="nonzero"/><path stroke-linecap="butt" transform="matrix(-0.0581293, -0.747744, 0.747744, -0.0581293, 69.692909, 247.681333)" fill="none" stroke-linejoin="miter" d="M 16.125346 39.423686 C 13.409013 39.421481 11.013102 38.859092 8.938422 37.726135 C 6.868531 36.598773 5.245302 34.900146 4.079119 32.631059 C 2.90734 30.366762 2.320003 27.573253 2.322704 24.245745 C 2.319809 20.923025 2.907684 18.132069 4.076752 15.861682 C 5.245416 13.596488 6.866209 11.899295 8.939534 10.76491 C 11.012455 9.635719 13.407284 9.069629 16.123617 9.071834 C 18.965382 9.073341 21.372485 9.626152 23.360101 10.736669 C 25.342524 11.846783 26.75724 13.539648 27.609844 15.810478 L 23.348276 18.4151 L 22.842973 18.396714 C 22.209873 16.863868 21.355121 15.763058 20.273524 15.093882 C 19.186331 14.429495 17.806862 14.097621 16.124731 14.097454 C 13.674838 14.095066 11.767551 14.908019 10.392887 16.530313 C 9.018627 18.147415 8.33266 20.721784 8.33539 24.248228 C 8.334139 27.758691 9.022724 30.324988 10.39076 31.946313 C 11.76399 33.568041 13.675551 34.380099 16.125847 34.377294 C 19.960274 34.37761 22.304223 32.517225 23.168889 28.786561 L 23.67021 28.788966 L 27.967791 31.029835 C 27.165402 33.825012 25.784756 35.927453 23.831853 37.327178 C 21.884546 38.722113 19.311845 39.425873 16.125346 39.423686 Z M 16.125346 39.423686 " stroke="#ffffff" stroke-width="3.10002" stroke-opacity="1" stroke-miterlimit="4"/><path stroke-linecap="butt" transform="matrix(0.102634, -0.742944, 0.742944, 0.102634, 68.176128, 220.6419)" fill="none" stroke-linejoin="miter" d="M 28.313674 39.002283 L 22.177266 38.998233 L 19.960641 32.201165 L 8.656386 32.201224 L 6.435854 39.001358 L 0.441598 38.998701 L 10.63589 9.498004 L 18.122481 9.494299 Z M 14.025184 15.649357 L 10.228822 27.294045 L 18.34149 27.293233 L 14.530458 15.653165 Z M 14.025184 15.649357 " stroke="#ffffff" stroke-width="3.10002" stroke-opacity="1" stroke-miterlimit="4"/><path stroke-linecap="butt" transform="matrix(0.246179, -0.708446, 0.708446, 0.246179, 72.483691, 194.40526)" fill="none" stroke-linejoin="miter" d="M 9.6664 9.49471 L 9.664175 34.114724 L 22.925415 34.116121 L 22.924811 39.001582 L 3.835964 39.001651 L 3.833874 9.497886 Z M 9.6664 9.49471 " stroke="#ffffff" stroke-width="3.10002" stroke-opacity="1" stroke-miterlimit="4"/><path stroke-linecap="butt" transform="matrix(0.380185, -0.646498, 0.646498, 0.380185, 80.322414, 172.812543)" fill="none" stroke-linejoin="miter" d="M 28.312972 39.00122 L 22.179877 39.000723 L 19.956699 32.199511 L 8.657015 32.198107 L 6.439806 39.000352 L 0.444293 38.997495 L 10.634837 9.494677 L 18.122099 9.496399 Z M 14.025826 15.651432 L 10.233084 27.295524 L 18.341181 27.294682 L 14.532318 15.649646 Z M 14.025826 15.651432 " stroke="#ffffff" stroke-width="3.10002" stroke-opacity="1" stroke-miterlimit="4"/><path stroke-linecap="butt" transform="matrix(0.513787, -0.546373, 0.546373, 0.513787, 94.505835, 149.704253)" fill="none" stroke-linejoin="miter" d="M 15.640782 39.42395 C 11.576784 39.420628 8.56289 38.458428 6.599326 36.529989 C 4.632194 34.597755 3.655362 31.734283 3.654106 27.939119 L 3.653621 9.494061 L 9.360977 9.496311 L 9.366388 27.90099 C 9.366571 30.052795 9.884357 31.667821 10.916177 32.742274 C 11.951566 33.820521 13.530438 34.359101 15.638069 34.35756 C 19.823656 34.360935 21.91638 32.207137 21.916014 27.903528 L 21.914397 9.495281 L 27.629116 9.497757 L 27.626033 27.939021 C 27.627289 31.734185 26.64396 34.596361 24.679615 36.529345 C 22.719064 38.458761 19.701212 39.423479 15.640782 39.42395 Z M 15.640782 39.42395 " stroke="#ffffff" stroke-width="3.10002" stroke-opacity="1" stroke-miterlimit="4"/><path stroke-linecap="butt" transform="matrix(0.621928, -0.419172, 0.419172, 0.621928, 114.883562, 129.092365)" fill="none" stroke-linejoin="miter" d="M 28.312222 39.000959 L 22.177228 38.998859 L 19.959534 32.196825 L 8.658806 32.198967 L 6.437408 38.9988 L 0.445413 38.998867 L 10.634083 9.493392 L 18.119734 9.495091 Z M 14.028013 15.649875 L 10.232148 27.292554 L 18.344726 27.295976 L 14.530718 15.649525 Z M 14.028013 15.649875 " stroke="#ffffff" stroke-width="3.10002" stroke-opacity="1" stroke-miterlimit="4"/><path stroke-linecap="butt" transform="matrix(0.698769, -0.272437, 0.272437, 0.698769, 137.626299, 114.398781)" fill="none" stroke-linejoin="miter" d="M 14.328427 39.423288 C 11.867889 39.425483 9.739 38.8638 7.94176 37.738236 C 6.144521 36.612673 4.758218 34.920602 3.786636 32.652318 C 2.80831 30.386994 2.318562 27.585433 2.322244 24.249527 C 2.320827 20.883682 2.903596 18.069831 4.077295 15.805012 C 5.248033 13.533449 6.872674 11.846938 8.948257 10.738733 C 11.030584 9.627568 13.437932 9.073566 16.183789 9.070807 C 19.011895 9.072164 21.418044 9.596601 23.40709 10.646011 C 25.400988 11.697313 26.800621 13.254826 27.607057 15.330149 L 23.346897 17.912147 L 22.846664 17.890412 C 22.236439 16.573591 21.387515 15.61092 20.293146 15.005361 C 19.193925 14.39791 17.823682 14.098467 16.186202 14.097326 C 13.643416 14.095406 11.696729 14.901683 10.354779 16.508344 C 9.006085 18.117965 8.336143 20.696583 8.333356 24.245265 C 8.334599 27.812289 8.961794 30.404699 10.221684 32.019533 C 11.476722 33.632476 13.337882 34.436369 15.801381 34.440918 C 17.927252 34.436816 19.492868 33.962723 20.503905 33.004081 C 21.51305 32.050293 22.018034 30.626022 22.014004 28.729377 L 22.018336 27.456504 L 15.036119 27.456693 L 15.034269 22.715493 L 27.808079 22.714898 L 27.809426 38.999638 L 22.240315 39.002932 L 22.240487 35.045147 L 21.816336 34.985992 C 21.209694 36.398579 20.29266 37.488904 19.063345 38.26182 C 17.827284 39.037696 16.251227 39.423865 14.328427 39.423288 Z M 14.328427 39.423288 " stroke="#ffffff" stroke-width="3.10002" stroke-opacity="1" stroke-miterlimit="4"/><path stroke-linecap="butt" transform="matrix(0.747507, -0.0611031, 0.0611031, 0.747507, 174.267195, 102.825375)" fill="none" stroke-linejoin="miter" d="M 13.079459 39.42428 C 11.031001 39.424056 9.212249 39.170873 7.617587 38.669496 C 6.023349 38.162928 4.697898 37.500657 3.631277 36.676644 C 2.569423 35.858247 1.754842 34.955548 1.192301 33.974163 L 4.396781 30.060767 L 4.903705 30.060399 C 5.7942 31.376908 6.92044 32.4305 8.283699 33.2056 C 9.651725 33.986317 11.244915 34.377833 13.079269 34.376233 C 14.636377 34.378098 15.812771 34.050977 16.608878 33.38968 C 17.404984 32.728383 17.798015 31.819883 17.798353 30.66503 C 17.798112 29.964766 17.673484 29.379751 17.414088 28.909136 C 17.159883 28.438946 16.738392 28.033467 16.143998 27.697466 C 15.554796 27.36189 14.752861 27.071632 13.74296 26.832309 L 9.947008 25.962868 C 7.299842 25.359779 5.323321 24.351649 4.027404 22.944517 C 2.72587 21.542151 2.081107 19.712707 2.076691 17.465292 C 2.077085 15.798325 2.494755 14.332689 3.329701 13.068384 C 4.164647 11.80408 5.378934 10.821618 6.972562 10.120998 C 8.56619 9.420378 10.475692 9.074798 12.691536 9.073027 C 14.964906 9.070733 16.915654 9.371286 18.533825 9.968647 C 20.157186 10.566433 21.524136 11.488155 22.640716 12.723857 L 19.756806 16.679134 L 19.249883 16.679503 C 18.417183 15.806677 17.462416 15.148579 16.385159 14.710399 C 15.312668 14.277834 14.081774 14.057026 12.691628 14.058358 C 11.092567 14.058289 9.872848 14.340062 9.042851 14.904527 C 8.207664 15.468567 7.788479 16.249512 7.790489 17.247786 C 7.788057 18.172537 8.082914 18.912561 8.669868 19.467433 C 9.252055 20.01669 10.26702 20.449778 11.705229 20.755467 L 15.579372 21.563365 C 18.445833 22.168702 20.525326 23.195701 21.813082 24.638746 C 23.105606 26.087407 23.750893 27.974377 23.754135 30.300081 C 23.754887 32.144816 23.357331 33.747965 22.561041 35.114717 C 21.769943 36.481894 20.570479 37.538728 18.972184 38.296449 C 17.369122 39.048555 15.404739 39.426229 13.079459 39.42428 Z M 13.079459 39.42428 " stroke="#ffffff" stroke-width="3.10002" stroke-opacity="1" stroke-miterlimit="4"/><path stroke-linecap="butt" transform="matrix(0.745821, 0.0790672, -0.0790672, 0.745821, 198.074199, 101.365417)" fill="none" stroke-linejoin="miter" d="M 23.65355 9.493931 L 23.650106 14.401853 L 15.133556 14.398633 L 15.13328 38.999295 L 9.325183 39.002243 L 9.325459 14.401582 L 0.80891 14.398362 L 0.807725 9.496169 Z M 23.65355 9.493931 " stroke="#ffffff" stroke-width="3.10002" stroke-opacity="1" stroke-miterlimit="4"/><path stroke-linecap="butt" transform="matrix(0.727806, 0.181105, -0.181105, 0.727806, 220.119571, 104.314323)" fill="none" stroke-linejoin="miter" d="M 5.689642 39.18428 C 4.980984 39.183504 4.34828 39.035015 3.804153 38.746408 C 3.260027 38.457801 2.843608 38.056909 2.551099 37.550042 C 2.262386 37.036864 2.117754 36.45563 2.118459 35.811395 C 2.119165 35.16716 2.265067 34.588771 2.551112 34.077485 C 2.842211 33.564942 3.256985 33.16117 3.805543 32.863654 C 4.349046 32.567395 4.978283 32.421552 5.691996 32.421071 C 6.417074 32.423128 7.053575 32.565304 7.597701 32.853911 C 8.141828 33.142518 8.558247 33.543411 8.84696 34.056589 C 9.140726 34.56851 9.284101 35.144689 9.283396 35.788924 C 9.281056 36.771697 8.956787 37.582321 8.305535 38.222054 C 7.654283 38.861787 6.77853 39.181682 5.689642 39.18428 Z M 5.689642 39.18428 " stroke="#ffffff" stroke-width="3.10002" stroke-opacity="1" stroke-miterlimit="4"/><path stroke-linecap="butt" transform="matrix(0.666812, 0.343311, -0.343311, 0.666812, 242.072009, 110.744208)" fill="none" stroke-linejoin="miter" d="M 17.534323 38.999924 L 10.492539 38.999253 L 0.523616 9.498698 L 6.719781 9.495382 L 13.886323 31.493434 L 14.389458 31.492149 L 21.453244 9.496036 L 27.486373 9.494646 Z M 17.534323 38.999924 " stroke="#ffffff" stroke-width="3.10002" stroke-opacity="1" stroke-miterlimit="4"/><path stroke-linecap="butt" transform="matrix(0.604419, 0.444048, -0.444048, 0.604419, 264.181187, 122.989108)" fill="none" stroke-linejoin="miter" d="M 3.832203 9.49491 L 9.66688 9.493205 L 9.668973 39.000917 L 3.834296 39.002622 Z M 3.832203 9.49491 " stroke="#ffffff" stroke-width="3.10002" stroke-opacity="1" stroke-miterlimit="4"/><path stroke-linecap="butt" transform="matrix(0.518755, 0.541658, -0.541658, 0.518755, 276.210337, 131.563496)" fill="none" stroke-linejoin="miter" d="M 9.48761 38.999268 L 3.833132 38.999833 L 3.833199 9.497024 L 10.511747 9.496443 L 22.36016 28.502638 L 22.881571 28.42507 L 22.885354 9.498103 L 28.495647 9.498492 L 28.49558 39.001301 L 22.520531 38.997739 L 9.992174 18.698513 L 9.481889 18.779525 Z M 9.48761 38.999268 " stroke="#ffffff" stroke-width="3.10002" stroke-opacity="1" stroke-miterlimit="4"/><path stroke-linecap="butt" transform="matrix(0.383247, 0.644687, -0.644687, 0.383247, 296.296831, 153.668853)" fill="none" stroke-linejoin="miter" d="M 16.12175 39.425073 C 13.408113 39.42363 11.011064 38.859056 8.93774 37.729534 C 6.867078 36.595535 5.246095 34.898755 4.077454 32.634717 C 2.904336 30.368017 2.31859 27.571918 2.320218 24.246418 C 2.319185 20.925396 2.908042 18.130761 4.075175 15.861667 C 5.246784 13.595234 6.867332 11.898637 8.939478 10.767401 C 11.011625 9.636164 13.406755 9.072598 16.123052 9.069563 C 18.962643 9.073172 21.372154 9.626977 23.360538 10.736301 C 25.341784 11.84744 26.759982 13.538795 27.607992 15.812179 L 23.349876 18.41901 L 22.842429 18.396068 C 22.209129 16.862295 21.355178 15.760852 20.270775 15.09803 C 19.189034 14.430732 17.804961 14.098734 16.121219 14.097559 C 13.673768 14.096817 11.767353 14.908495 10.393019 16.52727 C 9.023163 18.148707 8.336039 20.721328 8.336123 24.247797 C 8.332577 27.759989 9.019209 30.325224 10.393358 31.947979 C 11.763031 33.568073 13.675162 34.377583 16.122613 34.378324 C 19.957252 34.379663 22.306889 32.516633 23.167048 28.786574 L 23.673526 28.790762 L 27.97105 31.030433 C 27.162469 33.82775 25.783824 35.922634 23.834269 37.326699 C 21.882899 38.723626 19.314156 39.42635 16.12175 39.425073 Z M 16.12175 39.425073 " stroke="#ffffff" stroke-width="3.10002" stroke-opacity="1" stroke-miterlimit="4"/><path stroke-linecap="butt" transform="matrix(0.245426, 0.708707, -0.708707, 0.245426, 309.441049, 177.071297)" fill="none" stroke-linejoin="miter" d="M 9.664554 26.043925 L 9.669547 34.114925 L 23.752529 34.113942 L 23.7534 38.997695 L 3.832971 38.999992 L 3.83667 9.496623 L 23.430935 9.497124 L 23.431806 14.380877 L 9.663441 14.380577 L 9.66556 21.282081 L 21.692932 21.280258 L 21.696847 26.043807 Z M 9.664554 26.043925 " stroke="#ffffff" stroke-width="3.10002" stroke-opacity="1" stroke-miterlimit="4"/><path stroke-linecap="butt" transform="matrix(0.0886267, 0.744745, -0.744745, 0.0886267, 317.151956, 200.250323)" fill="none" stroke-linejoin="miter" d="M 9.483757 38.997575 L 3.834288 39.001889 L 3.836309 9.498534 L 10.513613 9.495899 L 22.360372 28.508197 L 22.884445 28.423701 L 22.886933 9.49449 L 28.493796 9.495597 L 28.496947 38.999567 L 22.522517 39.001924 L 9.990436 18.696457 L 9.482493 18.777628 Z M 9.483757 38.997575 " stroke="#ffffff" stroke-width="3.10002" stroke-opacity="1" stroke-miterlimit="4"/><path stroke-linecap="butt" transform="matrix(-0.0698728, 0.746738, -0.746738, -0.0698728, 319.774114, 229.685697)" fill="none" stroke-linejoin="miter" d="M 23.651317 9.495003 L 23.650121 14.401872 L 15.133592 14.398414 L 15.133918 39.000173 L 9.322162 38.99995 L 9.321836 14.398191 L 0.805792 14.399918 L 0.807474 9.498235 Z M 23.651317 9.495003 " stroke="#ffffff" stroke-width="3.10002" stroke-opacity="1" stroke-miterlimit="4"/><g fill="#dd0808" fill-opacity="1"><g transform="translate(98.854922, 245.414289)"><g><path d="M -0.625 -12.09375 C -0.46875 -10.050781 -0.75 -8.222656 -1.46875 -6.609375 C -2.195312 -4.992188 -3.375 -3.679688 -5 -2.671875 C -6.632812 -1.671875 -8.691406 -1.070312 -11.171875 -0.875 C -13.648438 -0.6875 -15.769531 -0.960938 -17.53125 -1.703125 C -19.300781 -2.441406 -20.671875 -3.550781 -21.640625 -5.03125 C -22.609375 -6.519531 -23.171875 -8.285156 -23.328125 -10.328125 C -23.492188 -12.441406 -23.21875 -14.269531 -22.5 -15.8125 C -21.78125 -17.363281 -20.597656 -18.523438 -18.953125 -19.296875 L -16.75 -16.265625 L -16.734375 -15.890625 C -17.847656 -15.328125 -18.617188 -14.617188 -19.046875 -13.765625 C -19.472656 -12.910156 -19.640625 -11.859375 -19.546875 -10.609375 C -19.398438 -8.773438 -18.679688 -7.390625 -17.390625 -6.453125 C -16.109375 -5.523438 -14.148438 -5.164062 -11.515625 -5.375 C -8.890625 -5.582031 -7.007812 -6.242188 -5.875 -7.359375 C -4.738281 -8.484375 -4.242188 -9.960938 -4.390625 -11.796875 C -4.609375 -14.660156 -6.140625 -16.304688 -8.984375 -16.734375 L -9.015625 -17.109375 L -7.59375 -20.453125 C -5.445312 -20.015625 -3.796875 -19.109375 -2.640625 -17.734375 C -1.484375 -16.359375 -0.8125 -14.476562 -0.625 -12.09375 Z M -0.625 -12.09375 "/></g></g></g><g fill="#dd0808" fill-opacity="1"><g transform="translate(97.150954, 224.644622)"><g><path d="M 2.90625 -21.03125 L 2.28125 -16.484375 L -3 -15.53125 L -4.15625 -7.140625 L 0.65625 -4.78125 L 0.046875 -0.328125 L -20.828125 -10.9375 L -20.0625 -16.5 Z M -15.90625 -12.8125 L -7.65625 -8.796875 L -6.8125 -14.84375 L -15.84375 -13.1875 Z M -15.90625 -12.8125 "/></g></g></g><g fill="#dd0808" fill-opacity="1"><g transform="translate(100.113091, 204.00623)"><g><path d="M -18.53125 -14.109375 L -1.078125 -8.046875 L 2.1875 -17.453125 L 5.640625 -16.25 L 0.9375 -2.71875 L -19.96875 -9.984375 Z M -18.53125 -14.109375 "/></g></g></g><g fill="#dd0808" fill-opacity="1"><g transform="translate(105.535831, 187.639749)"><g><path d="M 10.765625 -18.296875 L 8.4375 -14.34375 L 3.203125 -15.484375 L -1.09375 -8.1875 L 2.453125 -4.15625 L 0.171875 -0.28125 L -15.03125 -18.09375 L -12.1875 -22.9375 Z M -9.765625 -17.9375 L -3.671875 -11.0625 L -0.578125 -16.3125 L -9.5625 -18.28125 Z M -9.765625 -17.9375 "/></g></g></g><g fill="#dd0808" fill-opacity="1"><g transform="translate(115.814369, 169.741938)"><g><path d="M 8.265625 -8.328125 C 6.179688 -6.109375 4.101562 -4.957031 2.03125 -4.875 C -0.03125 -4.789062 -2.097656 -5.722656 -4.171875 -7.671875 L -14.25 -17.140625 L -11.3125 -20.28125 L -1.25 -10.828125 C -0.0703125 -9.722656 1.070312 -9.175781 2.1875 -9.1875 C 3.3125 -9.195312 4.414062 -9.78125 5.5 -10.9375 C 7.65625 -13.21875 7.554688 -15.460938 5.203125 -17.671875 L -4.859375 -27.125 L -1.9375 -30.25 L 8.140625 -20.78125 C 10.210938 -18.832031 11.273438 -16.820312 11.328125 -14.75 C 11.378906 -12.6875 10.359375 -10.546875 8.265625 -8.328125 Z M 8.265625 -8.328125 "/></g></g></g><g fill="#dd0808" fill-opacity="1"><g transform="translate(131.231272, 153.347565)"><g><path d="M 17.609375 -11.875 L 13.796875 -9.296875 L 9.5625 -12.578125 L 2.546875 -7.84375 L 4 -2.703125 L 0.265625 -0.1875 L -5.734375 -22.8125 L -1.09375 -25.9375 Z M -1.078125 -20.40625 L 1.453125 -11.5625 L 6.515625 -14.96875 L -0.75 -20.625 Z M -1.078125 -20.40625 "/></g></g></g><g fill="#dd0808" fill-opacity="1"><g transform="translate(148.251325, 141.650776)"><g><path d="M 10.125 -3.609375 C 8.40625 -2.941406 6.765625 -2.753906 5.203125 -3.046875 C 3.648438 -3.335938 2.21875 -4.140625 0.90625 -5.453125 C -0.394531 -6.773438 -1.5 -8.601562 -2.40625 -10.9375 C -3.320312 -13.28125 -3.675781 -15.40625 -3.46875 -17.3125 C -3.269531 -19.226562 -2.597656 -20.851562 -1.453125 -22.1875 C -0.304688 -23.53125 1.226562 -24.578125 3.15625 -25.328125 C 5.125 -26.097656 6.945312 -26.382812 8.625 -26.1875 C 10.300781 -26 11.703125 -25.285156 12.828125 -24.046875 L 10.5625 -21.09375 L 10.21875 -20.96875 C 9.4375 -21.71875 8.578125 -22.15625 7.640625 -22.28125 C 6.710938 -22.40625 5.675781 -22.242188 4.53125 -21.796875 C 2.75 -21.109375 1.609375 -20.019531 1.109375 -18.53125 C 0.609375 -17.039062 0.84375 -15.054688 1.8125 -12.578125 C 2.78125 -10.078125 3.921875 -8.4375 5.234375 -7.65625 C 6.546875 -6.875 8.066406 -6.820312 9.796875 -7.5 C 11.285156 -8.070312 12.25 -8.832031 12.6875 -9.78125 C 13.132812 -10.726562 13.101562 -11.859375 12.59375 -13.171875 L 12.25 -14.0625 L 7.375 -12.15625 L 6.078125 -15.484375 L 15 -18.96875 L 19.4375 -7.578125 L 15.546875 -6.0625 L 14.46875 -8.828125 L 14.140625 -8.75 C 14.109375 -7.601562 13.765625 -6.585938 13.109375 -5.703125 C 12.460938 -4.828125 11.46875 -4.128906 10.125 -3.609375 Z M 10.125 -3.609375 "/></g></g></g><g fill="#dd0808" fill-opacity="1"><g transform="translate(169.66066, 133.931113)"><g/></g></g><g fill="#dd0808" fill-opacity="1"><g transform="translate(176.650216, 131.978138)"><g><path d="M 9.8125 -0.484375 C 8.28125 -0.359375 6.898438 -0.429688 5.671875 -0.703125 C 4.453125 -0.984375 3.421875 -1.398438 2.578125 -1.953125 C 1.734375 -2.503906 1.066406 -3.128906 0.578125 -3.828125 L 2.734375 -6.953125 L 3.109375 -6.984375 C 3.859375 -6.046875 4.765625 -5.328125 5.828125 -4.828125 C 6.898438 -4.328125 8.125 -4.132812 9.5 -4.25 C 10.664062 -4.34375 11.519531 -4.660156 12.0625 -5.203125 C 12.613281 -5.753906 12.851562 -6.460938 12.78125 -7.328125 C 12.738281 -7.847656 12.609375 -8.273438 12.390625 -8.609375 C 12.179688 -8.941406 11.84375 -9.21875 11.375 -9.4375 C 10.914062 -9.65625 10.300781 -9.820312 9.53125 -9.9375 L 6.640625 -10.359375 C 4.617188 -10.640625 3.082031 -11.265625 2.03125 -12.234375 C 0.976562 -13.210938 0.382812 -14.546875 0.25 -16.234375 C 0.144531 -17.472656 0.363281 -18.59375 0.90625 -19.59375 C 1.445312 -20.59375 2.296875 -21.398438 3.453125 -22.015625 C 4.609375 -22.640625 6.007812 -23.019531 7.65625 -23.15625 C 9.351562 -23.289062 10.828125 -23.179688 12.078125 -22.828125 C 13.335938 -22.484375 14.414062 -21.882812 15.3125 -21.03125 L 13.40625 -17.875 L 13.03125 -17.84375 C 12.351562 -18.445312 11.597656 -18.878906 10.765625 -19.140625 C 9.929688 -19.410156 8.992188 -19.503906 7.953125 -19.421875 C 6.753906 -19.316406 5.863281 -19.023438 5.28125 -18.546875 C 4.695312 -18.078125 4.4375 -17.472656 4.5 -16.734375 C 4.550781 -16.035156 4.8125 -15.5 5.28125 -15.125 C 5.75 -14.75 6.535156 -14.492188 7.640625 -14.359375 L 10.59375 -13.984375 C 12.757812 -13.703125 14.367188 -13.0625 15.421875 -12.0625 C 16.472656 -11.0625 17.070312 -9.695312 17.21875 -7.96875 C 17.332031 -6.582031 17.132812 -5.351562 16.625 -4.28125 C 16.125 -3.21875 15.296875 -2.351562 14.140625 -1.6875 C 12.984375 -1.03125 11.539062 -0.628906 9.8125 -0.484375 Z M 9.8125 -0.484375 "/></g></g></g><g fill="#dd0808" fill-opacity="1"><g transform="translate(194.990577, 130.452417)"><g><path d="M 19.96875 -20.125 L 19.59375 -16.46875 L 13.25 -17.140625 L 11.296875 1.203125 L 6.953125 0.734375 L 8.90625 -17.609375 L 2.5625 -18.28125 L 2.9375 -21.9375 Z M 19.96875 -20.125 "/></g></g></g><g fill="#dd0808" fill-opacity="1"><g transform="translate(213.056483, 132.69874)"><g><path d="M 4.109375 1.171875 C 3.585938 1.046875 3.15625 0.828125 2.8125 0.515625 C 2.46875 0.203125 2.238281 -0.164062 2.125 -0.59375 C 2.007812 -1.019531 2.007812 -1.460938 2.125 -1.921875 C 2.238281 -2.398438 2.445312 -2.796875 2.75 -3.109375 C 3.050781 -3.429688 3.425781 -3.648438 3.875 -3.765625 C 4.320312 -3.890625 4.804688 -3.890625 5.328125 -3.765625 C 5.859375 -3.628906 6.296875 -3.40625 6.640625 -3.09375 C 6.984375 -2.78125 7.21875 -2.410156 7.34375 -1.984375 C 7.46875 -1.566406 7.46875 -1.117188 7.34375 -0.640625 C 7.164062 0.0664062 6.78125 0.59375 6.1875 0.9375 C 5.601562 1.289062 4.910156 1.367188 4.109375 1.171875 Z M 4.109375 1.171875 "/></g></g></g><g fill="#dd0808" fill-opacity="1"><g transform="translate(221.744734, 134.906908)"><g/></g></g><g fill="#dd0808" fill-opacity="1"><g transform="translate(228.682885, 136.749858)"><g><path d="M 11.703125 6.015625 L 7 3.609375 L 10.46875 -19.5 L 14.609375 -17.359375 L 11.84375 -0.234375 L 12.171875 -0.0625 L 24.4375 -12.3125 L 28.453125 -10.234375 Z M 11.703125 6.015625 "/></g></g></g><g fill="#dd0808" fill-opacity="1"><g transform="translate(246.863332, 146.561431)"><g><path d="M 5.84375 4.296875 L 2.3125 1.703125 L 15.40625 -16.125 L 18.9375 -13.53125 Z M 5.84375 4.296875 "/></g></g></g><g fill="#dd0808" fill-opacity="1"><g transform="translate(255.085673, 151.794934)"><g><path d="M 4.921875 5.140625 L 1.984375 2.078125 L 17.96875 -13.21875 L 21.4375 -9.59375 L 17.28125 6.65625 L 17.609375 6.921875 L 27.859375 -2.890625 L 30.765625 0.140625 L 14.78125 15.4375 L 11.6875 12.203125 L 16.1875 -5.109375 L 15.875 -5.359375 Z M 4.921875 5.140625 "/></g></g></g><g fill="#dd0808" fill-opacity="1"><g transform="translate(271.154024, 168.615479)"><g><path d="M 5.921875 10.546875 C 4.867188 8.796875 4.304688 7.035156 4.234375 5.265625 C 4.171875 3.503906 4.644531 1.804688 5.65625 0.171875 C 6.675781 -1.453125 8.257812 -2.898438 10.40625 -4.171875 C 12.539062 -5.441406 14.5625 -6.128906 16.46875 -6.234375 C 18.382812 -6.347656 20.101562 -5.953125 21.625 -5.046875 C 23.144531 -4.148438 24.429688 -2.828125 25.484375 -1.078125 C 26.566406 0.753906 27.128906 2.519531 27.171875 4.21875 C 27.222656 5.925781 26.675781 7.488281 25.53125 8.90625 L 22.21875 7.171875 L 22.046875 6.84375 C 22.796875 5.832031 23.171875 4.847656 23.171875 3.890625 C 23.179688 2.941406 22.867188 1.925781 22.234375 0.84375 C 21.296875 -0.726562 20.039062 -1.644531 18.46875 -1.90625 C 16.894531 -2.175781 14.972656 -1.632812 12.703125 -0.28125 C 10.429688 1.070312 9.039062 2.5 8.53125 4 C 8.019531 5.507812 8.234375 7.050781 9.171875 8.625 C 10.640625 11.101562 12.734375 11.90625 15.453125 11.03125 L 15.640625 11.34375 L 15.859375 14.96875 C 13.753906 15.539062 11.875 15.460938 10.21875 14.734375 C 8.570312 14.003906 7.140625 12.609375 5.921875 10.546875 Z M 5.921875 10.546875 "/></g></g></g><g fill="#dd0808" fill-opacity="1"><g transform="translate(281.80147, 186.642923)"><g><path d="M 11.5625 3.65625 L 5.828125 5.640625 L 9.28125 15.625 L 5.828125 16.828125 L 0.9375 2.71875 L 21.84375 -4.515625 L 26.65625 9.375 L 23.203125 10.5625 L 19.828125 0.796875 L 14.9375 2.5 L 17.890625 11.03125 L 14.515625 12.1875 Z M 11.5625 3.65625 "/></g></g></g><g fill="#dd0808" fill-opacity="1"><g transform="translate(288.106899, 203.706765)"><g><path d="M 0.84375 7.0625 L 0.34375 2.859375 L 22.3125 0.25 L 22.90625 5.21875 L 9.796875 15.703125 L 9.90625 16.109375 L 24 14.4375 L 24.5 18.609375 L 2.53125 21.21875 L 2 16.765625 L 16.015625 5.65625 L 15.90625 5.265625 Z M 0.84375 7.0625 "/></g></g></g><g fill="#dd0808" fill-opacity="1"><g transform="translate(290.651329, 226.960658)"><g><path d="M 20.375 19.71875 L 16.71875 19.375 L 17.3125 13.03125 L -1.0625 11.3125 L -0.65625 6.96875 L 17.71875 8.6875 L 18.3125 2.328125 L 21.96875 2.671875 Z M 20.375 19.71875 "/></g></g></g><g fill="#09a6f3" fill-opacity="1"><g transform="translate(153.847953, 287.591967)"><g><path d="M -7.941406 4.949219 C -8.210938 5.371094 -8.230469 5.730469 -8.089844 6.0625 C -7.945312 6.390625 -7.640625 6.679688 -7.269531 6.953125 C -7.011719 7.140625 -6.824219 7.222656 -6.679688 7.222656 C -6.523438 7.222656 -6.421875 7.144531 -6.328125 7.019531 C -6.257812 6.921875 -6.191406 6.804688 -6.144531 6.675781 C -6.09375 6.554688 -6.023438 6.429688 -5.949219 6.320312 L -1.511719 0.269531 C -1.3125 0.00390625 -1.234375 -0.3125 -1.277344 -0.621094 C -1.320312 -0.929688 -1.46875 -1.222656 -1.761719 -1.4375 C -2.042969 -1.640625 -2.367188 -1.707031 -2.671875 -1.65625 C -2.980469 -1.601562 -3.261719 -1.425781 -3.460938 -1.160156 Z M -7.941406 4.949219 "/></g></g></g><g fill="#09a6f3" fill-opacity="1"><g transform="translate(146.030704, 281.364189)"><g/></g></g><g fill="#09a6f3" fill-opacity="1"><g transform="translate(139.67562, 274.792017)"><g><path d="M -8.957031 2.703125 C -9.328125 3.039062 -9.441406 3.386719 -9.390625 3.742188 C -9.335938 4.09375 -9.121094 4.453125 -8.832031 4.816406 C -8.632812 5.0625 -8.472656 5.191406 -8.332031 5.230469 C -8.183594 5.269531 -8.0625 5.222656 -7.941406 5.125 C -7.847656 5.046875 -7.753906 4.953125 -7.675781 4.839844 C -7.589844 4.734375 -7.492188 4.636719 -7.394531 4.550781 L -1.527344 -0.132812 C -1.269531 -0.339844 -1.109375 -0.625 -1.070312 -0.933594 C -1.03125 -1.242188 -1.097656 -1.5625 -1.324219 -1.847656 C -1.542969 -2.117188 -1.839844 -2.265625 -2.148438 -2.296875 C -2.457031 -2.324219 -2.777344 -2.230469 -3.035156 -2.023438 Z M -8.957031 2.703125 "/></g></g></g><g fill="#09a6f3" fill-opacity="1"><g transform="translate(133.754743, 266.739699)"><g/></g></g><g fill="#09a6f3" fill-opacity="1"><g transform="translate(129.335239, 258.736792)"><g><path d="M -9.351562 0.273438 C -9.800781 0.5 -9.996094 0.804688 -10.042969 1.160156 C -10.082031 1.515625 -9.964844 1.917969 -9.78125 2.34375 C -9.65625 2.636719 -9.535156 2.800781 -9.410156 2.875 C -9.273438 2.949219 -9.144531 2.9375 -9.003906 2.875 C -8.890625 2.824219 -8.777344 2.757812 -8.671875 2.671875 C -8.5625 2.589844 -8.441406 2.519531 -8.324219 2.460938 L -1.441406 -0.527344 C -1.136719 -0.660156 -0.910156 -0.894531 -0.789062 -1.179688 C -0.671875 -1.46875 -0.652344 -1.796875 -0.796875 -2.128906 C -0.9375 -2.445312 -1.183594 -2.667969 -1.476562 -2.777344 C -1.765625 -2.886719 -2.097656 -2.875 -2.402344 -2.746094 Z M -9.351562 0.273438 "/></g></g></g><g fill="#09a6f3" fill-opacity="1"><g transform="translate(125.72124, 249.418085)"><g/></g></g><g fill="#09a6f3" fill-opacity="1"><g transform="translate(123.543627, 240.539262)"><g><path d="M -9.097656 -2.179688 C -9.589844 -2.074219 -9.859375 -1.832031 -9.996094 -1.5 C -10.128906 -1.167969 -10.121094 -0.75 -10.054688 -0.289062 C -10.007812 0.0234375 -9.933594 0.214844 -9.832031 0.316406 C -9.722656 0.425781 -9.59375 0.445312 -9.441406 0.425781 C -9.320312 0.40625 -9.191406 0.371094 -9.070312 0.316406 C -8.941406 0.265625 -8.808594 0.230469 -8.679688 0.203125 L -1.253906 -0.886719 C -0.925781 -0.933594 -0.644531 -1.097656 -0.453125 -1.347656 C -0.265625 -1.59375 -0.160156 -1.902344 -0.214844 -2.261719 C -0.265625 -2.605469 -0.445312 -2.882812 -0.699219 -3.066406 C -0.953125 -3.246094 -1.277344 -3.324219 -1.605469 -3.277344 Z M -9.097656 -2.179688 "/></g></g></g><g fill="#09a6f3" fill-opacity="1"><g transform="translate(122.487059, 230.600172)"><g/></g></g><g fill="#09a6f3" fill-opacity="1"><g transform="translate(122.702261, 221.460844)"><g><path d="M -8.214844 -4.476562 C -8.714844 -4.503906 -9.039062 -4.34375 -9.261719 -4.058594 C -9.472656 -3.773438 -9.574219 -3.363281 -9.628906 -2.902344 C -9.667969 -2.589844 -9.644531 -2.382812 -9.574219 -2.257812 C -9.496094 -2.125 -9.378906 -2.074219 -9.226562 -2.054688 C -9.105469 -2.039062 -8.972656 -2.039062 -8.835938 -2.0625 C -8.703125 -2.078125 -8.5625 -2.078125 -8.429688 -2.070312 L -0.980469 -1.183594 C -0.648438 -1.144531 -0.335938 -1.230469 -0.0859375 -1.417969 C 0.160156 -1.605469 0.339844 -1.878906 0.382812 -2.242188 C 0.425781 -2.585938 0.320312 -2.902344 0.125 -3.140625 C -0.0703125 -3.382812 -0.363281 -3.542969 -0.691406 -3.582031 Z M -8.214844 -4.476562 "/></g></g></g><g fill="#09a6f3" fill-opacity="1"><g transform="translate(124.276394, 211.590358)"><g/></g></g><g fill="#09a6f3" fill-opacity="1"><g transform="translate(126.869443, 202.824117)"><g><path d="M -6.761719 -6.464844 C -7.238281 -6.625 -7.59375 -6.550781 -7.878906 -6.332031 C -8.160156 -6.113281 -8.367188 -5.746094 -8.539062 -5.316406 C -8.65625 -5.023438 -8.6875 -4.820312 -8.652344 -4.679688 C -8.613281 -4.53125 -8.511719 -4.449219 -8.371094 -4.390625 C -8.253906 -4.34375 -8.128906 -4.3125 -7.992188 -4.296875 C -7.859375 -4.277344 -7.722656 -4.238281 -7.597656 -4.199219 L -0.636719 -1.394531 C -0.328125 -1.273438 -0.00390625 -1.273438 0.285156 -1.390625 C 0.574219 -1.507812 0.820312 -1.726562 0.953125 -2.0625 C 1.085938 -2.386719 1.066406 -2.714844 0.941406 -3 C 0.8125 -3.285156 0.574219 -3.515625 0.265625 -3.636719 Z M -6.761719 -6.464844 "/></g></g></g><g fill="#09a6f3" fill-opacity="1"><g transform="translate(130.965211, 193.706433)"><g/></g></g><g fill="#09a6f3" fill-opacity="1"><g transform="translate(135.756327, 185.920955)"><g><path d="M -4.839844 -8.007812 C -5.257812 -8.285156 -5.621094 -8.304688 -5.953125 -8.171875 C -6.28125 -8.03125 -6.574219 -7.730469 -6.855469 -7.359375 C -7.046875 -7.109375 -7.128906 -6.921875 -7.132812 -6.777344 C -7.132812 -6.621094 -7.058594 -6.515625 -6.933594 -6.425781 C -6.835938 -6.347656 -6.722656 -6.28125 -6.59375 -6.234375 C -6.46875 -6.179688 -6.347656 -6.109375 -6.238281 -6.035156 L -0.25 -1.515625 C 0.015625 -1.3125 0.328125 -1.230469 0.636719 -1.269531 C 0.949219 -1.304688 1.242188 -1.453125 1.460938 -1.742188 C 1.667969 -2.019531 1.738281 -2.34375 1.691406 -2.652344 C 1.644531 -2.957031 1.472656 -3.242188 1.207031 -3.441406 Z M -4.839844 -8.007812 "/></g></g></g><g fill="#09a6f3" fill-opacity="1"><g transform="translate(142.089836, 178.18813)"><g/></g></g><g fill="#09a6f3" fill-opacity="1"><g transform="translate(148.746847, 171.923118)"><g><path d="M -2.582031 -8.992188 C -2.914062 -9.371094 -3.257812 -9.484375 -3.613281 -9.441406 C -3.96875 -9.390625 -4.332031 -9.179688 -4.695312 -8.894531 C -4.945312 -8.699219 -5.078125 -8.542969 -5.117188 -8.402344 C -5.15625 -8.253906 -5.113281 -8.132812 -5.015625 -8.011719 C -4.941406 -7.914062 -4.847656 -7.820312 -4.738281 -7.738281 C -4.632812 -7.65625 -4.535156 -7.554688 -4.449219 -7.457031 L 0.152344 -1.527344 C 0.355469 -1.265625 0.640625 -1.101562 0.949219 -1.058594 C 1.253906 -1.015625 1.578125 -1.078125 1.863281 -1.300781 C 2.136719 -1.511719 2.292969 -1.808594 2.324219 -2.117188 C 2.359375 -2.425781 2.265625 -2.746094 2.0625 -3.007812 Z M -2.582031 -8.992188 "/></g></g></g><g fill="#09a6f3" fill-opacity="1"><g transform="translate(156.879104, 166.111209)"><g/></g></g><g fill="#09a6f3" fill-opacity="1"><g transform="translate(164.940532, 161.800936)"><g><path d="M -0.144531 -9.355469 C -0.367188 -9.804688 -0.667969 -10.007812 -1.027344 -10.058594 C -1.378906 -10.101562 -1.785156 -9.992188 -2.210938 -9.8125 C -2.503906 -9.691406 -2.671875 -9.570312 -2.746094 -9.449219 C -2.824219 -9.3125 -2.8125 -9.183594 -2.753906 -9.042969 C -2.703125 -8.929688 -2.640625 -8.8125 -2.554688 -8.707031 C -2.472656 -8.597656 -2.40625 -8.476562 -2.347656 -8.359375 L 0.546875 -1.433594 C 0.675781 -1.128906 0.90625 -0.898438 1.191406 -0.773438 C 1.476562 -0.652344 1.804688 -0.628906 2.140625 -0.769531 C 2.460938 -0.902344 2.683594 -1.148438 2.796875 -1.4375 C 2.910156 -1.726562 2.90625 -2.058594 2.777344 -2.367188 Z M -0.144531 -9.355469 "/></g></g></g><g fill="#09a6f3" fill-opacity="1"><g transform="translate(174.30781, 158.31282)"><g/></g></g><g fill="#09a6f3" fill-opacity="1"><g transform="translate(183.214779, 156.256083)"><g><path d="M 2.300781 -9.066406 C 2.203125 -9.5625 1.964844 -9.832031 1.636719 -9.976562 C 1.304688 -10.113281 0.886719 -10.109375 0.425781 -10.050781 C 0.113281 -10.007812 -0.0820312 -9.9375 -0.183594 -9.835938 C -0.292969 -9.726562 -0.316406 -9.601562 -0.296875 -9.449219 C -0.28125 -9.324219 -0.246094 -9.195312 -0.191406 -9.070312 C -0.144531 -8.945312 -0.109375 -8.808594 -0.0859375 -8.679688 L 0.902344 -1.242188 C 0.945312 -0.914062 1.109375 -0.628906 1.351562 -0.4375 C 1.59375 -0.242188 1.90625 -0.136719 2.265625 -0.183594 C 2.609375 -0.230469 2.890625 -0.40625 3.074219 -0.65625 C 3.261719 -0.90625 3.339844 -1.230469 3.296875 -1.558594 Z M 2.300781 -9.066406 "/></g></g></g><g fill="#09a6f3" fill-opacity="1"><g transform="translate(193.167793, 155.33356)"><g/></g></g><g fill="#09a6f3" fill-opacity="1"><g transform="translate(202.302825, 155.672928)"><g><path d="M 4.585938 -8.152344 C 4.625 -8.65625 4.464844 -8.980469 4.183594 -9.203125 C 3.898438 -9.421875 3.492188 -9.53125 3.035156 -9.589844 C 2.71875 -9.632812 2.515625 -9.613281 2.390625 -9.542969 C 2.253906 -9.46875 2.199219 -9.351562 2.179688 -9.199219 C 2.164062 -9.074219 2.160156 -8.941406 2.183594 -8.808594 C 2.195312 -8.671875 2.191406 -8.535156 2.183594 -8.402344 L 1.195312 -0.964844 C 1.152344 -0.632812 1.234375 -0.320312 1.417969 -0.0703125 C 1.605469 0.183594 1.875 0.367188 2.234375 0.414062 C 2.578125 0.460938 2.894531 0.359375 3.140625 0.167969 C 3.382812 -0.0273438 3.546875 -0.316406 3.589844 -0.644531 Z M 4.585938 -8.152344 "/></g></g></g><g fill="#09a6f3" fill-opacity="1"><g transform="translate(212.151648, 157.379949)"><g/></g></g><g fill="#09a6f3" fill-opacity="1"><g transform="translate(220.881467, 160.091932)"><g><path d="M 6.558594 -6.671875 C 6.722656 -7.148438 6.652344 -7.503906 6.441406 -7.792969 C 6.222656 -8.078125 5.859375 -8.289062 5.433594 -8.464844 C 5.140625 -8.589844 4.9375 -8.621094 4.796875 -8.589844 C 4.648438 -8.550781 4.5625 -8.453125 4.503906 -8.308594 C 4.457031 -8.195312 4.421875 -8.070312 4.40625 -7.933594 C 4.382812 -7.800781 4.34375 -7.664062 4.300781 -7.542969 L 1.40625 -0.617188 C 1.277344 -0.3125 1.273438 0.015625 1.386719 0.304688 C 1.5 0.59375 1.714844 0.84375 2.050781 0.984375 C 2.371094 1.117188 2.703125 1.105469 2.988281 0.980469 C 3.273438 0.859375 3.507812 0.621094 3.632812 0.316406 Z M 6.558594 -6.671875 "/></g></g></g><g fill="#09a6f3" fill-opacity="1"><g transform="translate(229.943445, 164.310153)"><g/></g></g><g fill="#09a6f3" fill-opacity="1"><g transform="translate(237.662818, 169.206726)"><g><path d="M 8.070312 -4.730469 C 8.355469 -5.144531 8.378906 -5.507812 8.25 -5.84375 C 8.117188 -6.171875 7.820312 -6.472656 7.453125 -6.753906 C 7.203125 -6.949219 7.015625 -7.035156 6.871094 -7.039062 C 6.71875 -7.042969 6.613281 -6.96875 6.515625 -6.847656 C 6.441406 -6.75 6.375 -6.636719 6.324219 -6.507812 C 6.265625 -6.386719 6.195312 -6.265625 6.121094 -6.15625 L 1.515625 -0.230469 C 1.3125 0.03125 1.226562 0.347656 1.261719 0.65625 C 1.292969 0.964844 1.433594 1.261719 1.722656 1.484375 C 1.996094 1.695312 2.320312 1.769531 2.628906 1.726562 C 2.9375 1.683594 3.222656 1.515625 3.425781 1.253906 Z M 8.070312 -4.730469 "/></g></g></g><g fill="#09a6f3" fill-opacity="1"><g transform="translate(245.309788, 175.643739)"><g/></g></g><g fill="#09a6f3" fill-opacity="1"><g transform="translate(251.483613, 182.385468)"><g><path d="M 9.027344 -2.460938 C 9.410156 -2.789062 9.527344 -3.128906 9.488281 -3.488281 C 9.445312 -3.839844 9.238281 -4.207031 8.957031 -4.574219 C 8.765625 -4.828125 8.609375 -4.960938 8.472656 -5 C 8.324219 -5.042969 8.203125 -5 8.078125 -4.90625 C 7.980469 -4.832031 7.882812 -4.742188 7.800781 -4.632812 C 7.714844 -4.527344 7.613281 -4.433594 7.515625 -4.347656 L 1.523438 0.175781 C 1.257812 0.375 1.09375 0.65625 1.046875 0.960938 C 0.996094 1.269531 1.054688 1.59375 1.273438 1.882812 C 1.484375 2.160156 1.777344 2.316406 2.085938 2.351562 C 2.394531 2.390625 2.714844 2.304688 2.980469 2.101562 Z M 9.027344 -2.460938 "/></g></g></g><g fill="#09a6f3" fill-opacity="1"><g transform="translate(257.185474, 190.595076)"><g/></g></g><g fill="#09a6f3" fill-opacity="1"><g transform="translate(261.385729, 198.714628)"><g><path d="M 9.355469 -0.0195312 C 9.808594 -0.234375 10.015625 -0.535156 10.070312 -0.890625 C 10.121094 -1.242188 10.015625 -1.648438 9.839844 -2.078125 C 9.722656 -2.371094 9.605469 -2.542969 9.484375 -2.617188 C 9.351562 -2.699219 9.222656 -2.6875 9.078125 -2.628906 C 8.964844 -2.582031 8.847656 -2.519531 8.742188 -2.433594 C 8.632812 -2.359375 8.507812 -2.292969 8.390625 -2.234375 L 1.425781 0.566406 C 1.117188 0.691406 0.886719 0.917969 0.757812 1.203125 C 0.632812 1.484375 0.605469 1.8125 0.738281 2.148438 C 0.871094 2.472656 1.109375 2.699219 1.398438 2.816406 C 1.6875 2.933594 2.019531 2.933594 2.328125 2.808594 Z M 9.355469 -0.0195312 "/></g></g></g><g fill="#09a6f3" fill-opacity="1"><g transform="translate(264.747337, 208.127715)"><g/></g></g><g fill="#09a6f3" fill-opacity="1"><g transform="translate(266.682826, 217.062241)"><g><path d="M 9.035156 2.421875 C 9.53125 2.332031 9.804688 2.097656 9.953125 1.769531 C 10.09375 1.441406 10.097656 1.023438 10.042969 0.5625 C 10.003906 0.246094 9.9375 0.0546875 9.839844 -0.0507812 C 9.730469 -0.164062 9.605469 -0.1875 9.449219 -0.167969 C 9.328125 -0.152344 9.199219 -0.125 9.074219 -0.0703125 C 8.945312 -0.0234375 8.8125 0.0078125 8.679688 0.03125 L 1.230469 0.917969 C 0.898438 0.957031 0.613281 1.117188 0.417969 1.359375 C 0.222656 1.597656 0.109375 1.90625 0.152344 2.269531 C 0.195312 2.613281 0.367188 2.894531 0.617188 3.082031 C 0.863281 3.273438 1.183594 3.359375 1.515625 3.320312 Z M 9.035156 2.421875 "/></g></g></g><g fill="#09a6f3" fill-opacity="1"><g transform="translate(267.471126, 227.026292)"><g/></g></g><g fill="#09a6f3" fill-opacity="1"><g transform="translate(267.007619, 236.15642)"><g><path d="M 8.089844 4.699219 C 8.589844 4.738281 8.917969 4.585938 9.148438 4.304688 C 9.367188 4.027344 9.480469 3.621094 9.546875 3.164062 C 9.59375 2.851562 9.578125 2.644531 9.511719 2.519531 C 9.4375 2.382812 9.320312 2.324219 9.167969 2.304688 C 9.046875 2.285156 8.914062 2.28125 8.777344 2.300781 C 8.644531 2.3125 8.503906 2.308594 8.371094 2.296875 L 0.945312 1.207031 C 0.617188 1.160156 0.300781 1.238281 0.0507812 1.417969 C -0.203125 1.601562 -0.390625 1.871094 -0.445312 2.230469 C -0.496094 2.574219 -0.402344 2.890625 -0.210938 3.136719 C -0.0195312 3.382812 0.269531 3.550781 0.597656 3.597656 Z M 8.089844 4.699219 "/></g></g></g><g fill="#09a6f3" fill-opacity="1"><g transform="translate(265.168042, 245.980711)"><g/></g></g><g fill="#09a6f3" fill-opacity="1"><g transform="translate(262.337633, 254.673578)"><g><path d="M 6.585938 6.648438 C 7.058594 6.816406 7.414062 6.753906 7.707031 6.542969 C 7.992188 6.332031 8.207031 5.972656 8.390625 5.546875 C 8.519531 5.253906 8.554688 5.054688 8.523438 4.914062 C 8.488281 4.761719 8.390625 4.679688 8.25 4.617188 C 8.136719 4.566406 8.007812 4.527344 7.871094 4.511719 C 7.738281 4.488281 7.605469 4.445312 7.484375 4.402344 L 0.597656 1.414062 C 0.292969 1.28125 -0.03125 1.273438 -0.324219 1.382812 C -0.613281 1.492188 -0.867188 1.703125 -1.011719 2.035156 C -1.148438 2.355469 -1.140625 2.6875 -1.023438 2.972656 C -0.902344 3.261719 -0.667969 3.496094 -0.363281 3.628906 Z M 6.585938 6.648438 "/></g></g></g><g fill="#09a6f3" fill-opacity="1"><g transform="translate(257.99772, 263.677091)"><g/></g></g><g fill="#09a6f3" fill-opacity="1"><g transform="translate(252.996605, 271.330062)"><g><path d="M 4.621094 8.132812 C 5.03125 8.421875 5.394531 8.453125 5.730469 8.328125 C 6.0625 8.199219 6.363281 7.90625 6.652344 7.542969 C 6.851562 7.296875 6.941406 7.109375 6.945312 6.96875 C 6.949219 6.8125 6.878906 6.707031 6.757812 6.609375 C 6.660156 6.53125 6.546875 6.460938 6.421875 6.410156 C 6.300781 6.351562 6.183594 6.277344 6.074219 6.203125 L 0.210938 1.519531 C -0.0507812 1.3125 -0.363281 1.222656 -0.671875 1.25 C -0.984375 1.28125 -1.28125 1.417969 -1.507812 1.703125 C -1.722656 1.972656 -1.800781 2.296875 -1.761719 2.605469 C -1.722656 2.914062 -1.558594 3.203125 -1.296875 3.410156 Z M 4.621094 8.132812 "/></g></g></g><g fill="#09a6f3" fill-opacity="1"><g transform="translate(246.457258, 278.888664)"><g/></g></g><g fill="#09a6f3" fill-opacity="1"><g transform="translate(239.63203, 284.971244)"><g><path d="M 2.335938 9.058594 C 2.660156 9.445312 3 9.570312 3.359375 9.535156 C 3.710938 9.496094 4.082031 9.292969 4.453125 9.019531 C 4.710938 8.832031 4.84375 8.675781 4.886719 8.539062 C 4.929688 8.390625 4.890625 8.269531 4.796875 8.144531 C 4.726562 8.042969 4.636719 7.949219 4.527344 7.863281 C 4.421875 7.777344 4.328125 7.675781 4.246094 7.574219 L -0.195312 1.523438 C -0.390625 1.253906 -0.667969 1.085938 -0.976562 1.03125 C -1.28125 0.980469 -1.605469 1.035156 -1.898438 1.25 C -2.179688 1.457031 -2.339844 1.746094 -2.382812 2.054688 C -2.421875 2.363281 -2.339844 2.683594 -2.144531 2.953125 Z M 2.335938 9.058594 "/></g></g></g><path stroke-linecap="butt" transform="matrix(0.75, 0, 0, 0.75, 54.436595, 266.864718)" fill="none" stroke-linejoin="miter" d="M 5.454333 25.998085 L 2.006416 25.998085 L 2.006416 6.966834 L 6.923083 6.966834 L 11.740791 20.961627 L 12.016833 20.961627 L 16.803292 6.966834 L 21.610584 6.966834 L 21.610584 25.998085 L 18.042875 25.998085 L 18.042875 13.425168 L 17.71475 13.373085 L 13.318917 25.998085 L 10.178291 25.998085 L 5.777249 13.373085 L 5.454333 13.425168 Z M 5.454333 25.998085 " stroke="#ffffff" stroke-width="3.733422" stroke-opacity="1" stroke-miterlimit="4"/><path stroke-linecap="butt" transform="matrix(0.75, 0, 0, 0.75, 71.497104, 266.864718)" fill="none" stroke-linejoin="miter" d="M 9.618446 26.274127 C 6.998654 26.274127 5.055945 25.649127 3.79032 24.404335 C 2.519487 23.159544 1.889278 21.315793 1.889278 18.867877 L 1.889278 6.966834 L 5.57157 6.966834 L 5.57157 18.841835 C 5.57157 20.227252 5.904904 21.268918 6.57157 21.966835 C 7.243445 22.659544 8.25907 23.008502 9.618446 23.008502 C 12.316362 23.008502 13.670529 21.617877 13.670529 18.841835 L 13.670529 6.966834 L 17.352821 6.966834 L 17.352821 18.867877 C 17.352821 21.315793 16.717404 23.159544 15.451779 24.404335 C 14.186154 25.649127 12.238237 26.274127 9.618446 26.274127 Z M 9.618446 26.274127 " stroke="#ffffff" stroke-width="3.733422" stroke-opacity="1" stroke-miterlimit="4"/><path stroke-linecap="butt" transform="matrix(0.75, 0, 0, 0.75, 85.267866, 266.864718)" fill="none" stroke-linejoin="miter" d="M 5.767846 6.966834 L 5.767846 22.852252 L 14.319929 22.852252 L 14.319929 25.998085 L 2.00222 25.998085 L 2.00222 6.966834 Z M 5.767846 6.966834 " stroke="#ffffff" stroke-width="3.733422" stroke-opacity="1" stroke-miterlimit="4"/><path stroke-linecap="butt" transform="matrix(0.75, 0, 0, 0.75, 95.465821, 266.864718)" fill="none" stroke-linejoin="miter" d="M 14.790365 6.966834 L 14.790365 10.133501 L 9.295573 10.133501 L 9.295573 25.998085 L 5.545573 25.998085 L 5.545573 10.133501 L 0.0507808 10.133501 L 0.0507808 6.966834 Z M 14.790365 6.966834 " stroke="#ffffff" stroke-width="3.733422" stroke-opacity="1" stroke-miterlimit="4"/><path stroke-linecap="butt" transform="matrix(0.75, 0, 0, 0.75, 105.937109, 266.864718)" fill="none" stroke-linejoin="miter" d="M 2.00573 6.966834 L 5.766147 6.966834 L 5.766147 25.998085 L 2.00573 25.998085 Z M 2.00573 6.966834 " stroke="#ffffff" stroke-width="3.733422" stroke-opacity="1" stroke-miterlimit="4"/><path stroke-linecap="butt" transform="matrix(0.75, 0, 0, 0.75, 111.117484, 266.864718)" fill="none" stroke-linejoin="miter" d="M 0.666271 15.16996 L 8.645438 15.16996 L 8.645438 18.347043 L 0.666271 18.347043 Z M 0.666271 15.16996 " stroke="#ffffff" stroke-width="3.733422" stroke-opacity="1" stroke-miterlimit="4"/><path stroke-linecap="butt" transform="matrix(0.75, 0, 0, 0.75, 117.459525, 266.864718)" fill="none" stroke-linejoin="miter" d="M 9.361259 6.966834 C 10.720634 6.966834 11.887301 7.216834 12.856051 7.716834 C 13.824801 8.216834 14.553968 8.914751 15.04876 9.810584 C 15.543551 10.711626 15.788343 11.753293 15.788343 12.940793 C 15.788343 14.133501 15.543551 15.175168 15.04876 16.065793 C 14.553968 16.961626 13.824801 17.659543 12.856051 18.154335 C 11.887301 18.654335 10.720634 18.904335 9.361259 18.904335 L 5.767509 18.904335 L 5.767509 25.998085 L 2.007092 25.998085 L 2.007092 6.966834 Z M 8.866468 15.925168 C 10.955009 15.925168 12.001884 14.930376 12.001884 12.940793 C 12.001884 10.946001 10.955009 9.951209 8.866468 9.951209 L 5.767509 9.951209 L 5.767509 15.925168 Z M 8.866468 15.925168 " stroke="#ffffff" stroke-width="3.733422" stroke-opacity="1" stroke-miterlimit="4"/><path stroke-linecap="butt" transform="matrix(0.75, 0, 0, 0.75, 129.141265, 266.864718)" fill="none" stroke-linejoin="miter" d="M 9.618939 26.274127 C 6.999147 26.274127 5.056439 25.649127 3.785605 24.404335 C 2.51998 23.159544 1.889772 21.315793 1.889772 18.867877 L 1.889772 6.966834 L 5.572064 6.966834 L 5.572064 18.841835 C 5.572064 20.227252 5.905397 21.268918 6.572064 21.966835 C 7.243939 22.659544 8.259564 23.008502 9.618939 23.008502 C 12.316856 23.008502 13.665814 21.617877 13.665814 18.841835 L 13.665814 6.966834 L 17.353315 6.966834 L 17.353315 18.867877 C 17.353315 21.315793 16.717898 23.159544 15.452273 24.404335 C 14.186648 25.649127 12.238731 26.274127 9.618939 26.274127 Z M 9.618939 26.274127 " stroke="#ffffff" stroke-width="3.733422" stroke-opacity="1" stroke-miterlimit="4"/><path stroke-linecap="butt" transform="matrix(0.75, 0, 0, 0.75, 142.912027, 266.864718)" fill="none" stroke-linejoin="miter" d="M 2.002714 25.998085 L 2.002714 6.966834 L 9.643339 6.966834 C 11.617298 6.966834 13.101673 7.419959 14.106881 8.326209 C 15.106882 9.237668 15.606882 10.487668 15.606882 12.086626 C 15.606882 13.237668 15.315215 14.185585 14.726673 14.91996 C 14.14334 15.659543 13.26834 16.222043 12.106881 16.612668 L 12.106881 16.88871 C 12.70584 17.149126 13.190215 17.534543 13.560006 18.04496 C 13.92459 18.560585 14.273548 19.315793 14.606881 20.32621 L 16.507923 25.998085 L 12.638131 25.998085 L 10.778756 20.310585 C 10.586048 19.737668 10.372506 19.29496 10.132923 18.977252 C 9.893339 18.659543 9.591256 18.430377 9.221464 18.284543 C 8.851673 18.143918 8.372506 18.071002 7.783964 18.071002 L 5.768339 18.071002 L 5.768339 25.998085 Z M 9.190214 15.091835 C 11.013131 15.091835 11.92459 14.242876 11.92459 12.539751 C 11.92459 10.810584 11.013131 9.951209 9.190214 9.951209 L 5.768339 9.951209 L 5.768339 15.091835 Z M 9.190214 15.091835 " stroke="#ffffff" stroke-width="3.733422" stroke-opacity="1" stroke-miterlimit="4"/><path stroke-linecap="butt" transform="matrix(0.75, 0, 0, 0.75, 154.896395, 266.864718)" fill="none" stroke-linejoin="miter" d="M 9.362099 6.966834 C 10.721474 6.966834 11.888141 7.216834 12.856891 7.716834 C 13.820432 8.216834 14.554807 8.914751 15.049599 9.810584 C 15.544391 10.711626 15.789183 11.753293 15.789183 12.940793 C 15.789183 14.133501 15.544391 15.175168 15.049599 16.065793 C 14.554807 16.961626 13.820432 17.659543 12.856891 18.154335 C 11.888141 18.654335 10.721474 18.904335 9.362099 18.904335 L 5.768349 18.904335 L 5.768349 25.998085 L 2.002723 25.998085 L 2.002723 6.966834 Z M 8.867307 15.925168 C 10.955849 15.925168 12.002724 14.930376 12.002724 12.940793 C 12.002724 10.946001 10.955849 9.951209 8.867307 9.951209 L 5.768349 9.951209 L 5.768349 15.925168 Z M 8.867307 15.925168 " stroke="#ffffff" stroke-width="3.733422" stroke-opacity="1" stroke-miterlimit="4"/><path stroke-linecap="butt" transform="matrix(0.75, 0, 0, 0.75, 166.578142, 266.864718)" fill="none" stroke-linejoin="miter" d="M 9.906228 26.274127 C 8.161436 26.274127 6.624977 25.91996 5.291644 25.206419 C 3.95831 24.492877 2.916644 23.409544 2.161435 21.946002 C 1.406227 20.48246 1.026019 18.664752 1.026019 16.48246 C 1.026019 14.305376 1.406227 12.487668 2.161435 11.024126 C 2.916644 9.560584 3.95831 8.472043 5.291644 7.763709 C 6.624977 7.050167 8.161436 6.696001 9.906228 6.696001 C 11.651019 6.696001 13.187478 7.050167 14.515603 7.753293 C 15.843728 8.461626 16.880186 9.550168 17.630186 11.018918 C 18.385395 12.48246 18.760395 14.305376 18.760395 16.48246 C 18.760395 18.664752 18.385395 20.48246 17.630186 21.95121 C 16.880186 23.41996 15.843728 24.503294 14.515603 25.211627 C 13.187478 25.91996 11.651019 26.274127 9.906228 26.274127 Z M 9.906228 23.008502 C 11.520811 23.008502 12.755186 22.487669 13.604144 21.45121 C 14.453103 20.414752 14.880186 18.758502 14.880186 16.48246 C 14.880186 14.211626 14.453103 12.555376 13.604144 11.513709 C 12.755186 10.472043 11.520811 9.951209 9.906228 9.951209 C 8.281227 9.951209 7.046852 10.472043 6.187477 11.513709 C 5.333311 12.555376 4.906227 14.211626 4.906227 16.48246 C 4.906227 18.758502 5.333311 20.414752 6.187477 21.45121 C 7.046852 22.487669 8.281227 23.008502 9.906228 23.008502 Z M 9.906228 23.008502 " stroke="#ffffff" stroke-width="3.733422" stroke-opacity="1" stroke-miterlimit="4"/><path stroke-linecap="butt" transform="matrix(0.75, 0, 0, 0.75, 180.768669, 266.864718)" fill="none" stroke-linejoin="miter" d="M 7.964691 26.274127 C 6.646983 26.274127 5.475108 26.112669 4.443858 25.784544 C 3.417816 25.461627 2.558441 25.034544 1.876149 24.503294 C 1.188649 23.972044 0.662607 23.393919 0.298024 22.758502 L 2.370941 20.23246 L 2.693858 20.23246 C 3.266774 21.081418 3.995941 21.758502 4.876149 22.26371 C 5.756358 22.768919 6.787608 23.018919 7.964691 23.018919 C 8.975108 23.018919 9.730316 22.805377 10.245941 22.383502 C 10.756358 21.956418 11.011566 21.367877 11.011566 20.623085 C 11.011566 20.16996 10.928233 19.79496 10.766775 19.492877 C 10.600108 19.185585 10.329275 18.925168 9.943858 18.711627 C 9.56365 18.492877 9.048025 18.305377 8.396983 18.149127 L 5.949066 17.591835 C 4.240733 17.20121 2.964691 16.550168 2.126149 15.643918 C 1.292816 14.737668 0.870941 13.560585 0.870941 12.112668 C 0.870941 11.034543 1.141774 10.086626 1.678233 9.274126 C 2.214691 8.456418 3.001149 7.821001 4.027191 7.373084 C 5.058441 6.919959 6.287608 6.696001 7.7199 6.696001 C 9.183441 6.696001 10.443858 6.888709 11.485525 7.274126 C 12.5324 7.659543 13.417817 8.253293 14.136567 9.050168 L 12.277192 11.602251 L 11.949067 11.602251 C 11.412608 11.039751 10.798025 10.617876 10.100108 10.331418 C 9.4074 10.050168 8.615733 9.909543 7.7199 9.909543 C 6.68865 9.909543 5.902191 10.091834 5.360524 10.456418 C 4.824066 10.821001 4.558441 11.326209 4.558441 11.966834 C 4.558441 12.565793 4.745941 13.04496 5.120941 13.399126 C 5.501149 13.753293 6.152191 14.034543 7.079275 14.23246 L 9.579275 14.753293 C 11.428233 15.143918 12.771983 15.805376 13.605317 16.737668 C 14.43865 17.66996 14.855317 18.88871 14.855317 20.38871 C 14.855317 21.57621 14.5949 22.612669 14.084483 23.492877 C 13.574067 24.373085 12.798025 25.060585 11.766775 25.54496 C 10.735525 26.029335 9.4699 26.274127 7.964691 26.274127 Z M 7.964691 26.274127 " stroke="#ffffff" stroke-width="3.733422" stroke-opacity="1" stroke-miterlimit="4"/><path stroke-linecap="butt" transform="matrix(0.75, 0, 0, 0.75, 191.669478, 266.864718)" fill="none" stroke-linejoin="miter" d="M 5.768821 17.643918 L 5.768821 22.852252 L 14.852155 22.852252 L 14.852155 25.998085 L 2.003196 25.998085 L 2.003196 6.966834 L 14.643822 6.966834 L 14.643822 10.117876 L 5.768821 10.117876 L 5.768821 14.571001 L 13.52403 14.571001 L 13.52403 17.643918 Z M 5.768821 17.643918 " stroke="#ffffff" stroke-width="3.733422" stroke-opacity="1" stroke-miterlimit="4"/><path stroke-linecap="butt" transform="matrix(0.75, 0, 0, 0.75, 205.934962, 266.864718)" fill="none" stroke-linejoin="miter" d="M 9.930468 26.274127 C 8.180468 26.274127 6.633593 25.909544 5.300259 25.180377 C 3.961717 24.45121 2.914842 23.35746 2.159634 21.893918 C 1.404426 20.430377 1.029425 18.628293 1.029425 16.48246 C 1.029425 14.341835 1.404426 12.539751 2.159634 11.076209 C 2.914842 9.612668 3.961717 8.518918 5.300259 7.789751 C 6.633593 7.060584 8.180468 6.696001 9.930468 6.696001 C 11.763801 6.696001 13.321093 7.055376 14.597135 7.768918 C 15.878385 8.482459 16.795052 9.576209 17.336718 11.044959 L 14.591926 12.722043 L 14.26901 12.711626 C 13.857551 11.722043 13.305468 11.008501 12.607551 10.581418 C 11.909635 10.149126 11.019009 9.935584 9.930468 9.935584 C 8.352343 9.935584 7.117968 10.461626 6.237759 11.503293 C 5.352342 12.550168 4.909634 14.211626 4.909634 16.48246 C 4.909634 18.748085 5.352342 20.404335 6.237759 21.45121 C 7.117968 22.498085 8.352343 23.018919 9.930468 23.018919 C 12.404426 23.018919 13.920051 21.815793 14.477343 19.414752 L 14.80026 19.414752 L 17.571093 20.85746 C 17.055468 22.664752 16.164843 24.018919 14.904426 24.91996 C 13.649218 25.821002 11.98776 26.274127 9.930468 26.274127 Z M 9.930468 26.274127 " stroke="#ffffff" stroke-width="3.733422" stroke-opacity="1" stroke-miterlimit="4"/><path stroke-linecap="butt" transform="matrix(0.75, 0, 0, 0.75, 218.573354, 266.864718)" fill="none" stroke-linejoin="miter" d="M 9.907403 26.274127 C 8.162612 26.274127 6.626153 25.91996 5.29282 25.206419 C 3.959486 24.492877 2.91782 23.409544 2.162611 21.946002 C 1.407403 20.48246 1.027195 18.664752 1.027195 16.48246 C 1.027195 14.305376 1.407403 12.487668 2.162611 11.024126 C 2.91782 9.560584 3.959486 8.472043 5.29282 7.763709 C 6.626153 7.050167 8.162612 6.696001 9.907403 6.696001 C 11.652195 6.696001 13.188654 7.050167 14.516779 7.753293 C 15.839696 8.461626 16.881362 9.550168 17.631362 11.018918 C 18.381362 12.48246 18.756362 14.305376 18.756362 16.48246 C 18.756362 18.664752 18.381362 20.48246 17.631362 21.95121 C 16.881362 23.41996 15.839696 24.503294 14.516779 25.211627 C 13.188654 25.91996 11.652195 26.274127 9.907403 26.274127 Z M 9.907403 23.008502 C 11.521987 23.008502 12.751154 22.487669 13.60532 21.45121 C 14.454279 20.414752 14.881362 18.758502 14.881362 16.48246 C 14.881362 14.211626 14.454279 12.555376 13.60532 11.513709 C 12.751154 10.472043 11.521987 9.951209 9.907403 9.951209 C 8.282403 9.951209 7.04282 10.472043 6.188653 11.513709 C 5.334486 12.555376 4.907403 14.211626 4.907403 16.48246 C 4.907403 18.758502 5.334486 20.414752 6.188653 21.45121 C 7.04282 22.487669 8.282403 23.008502 9.907403 23.008502 Z M 9.907403 23.008502 " stroke="#ffffff" stroke-width="3.733422" stroke-opacity="1" stroke-miterlimit="4"/><path stroke-linecap="butt" transform="matrix(0.75, 0, 0, 0.75, 232.763896, 266.864718)" fill="none" stroke-linejoin="miter" d="M 9.908556 26.274127 C 8.163765 26.274127 6.622098 25.91996 5.293973 25.206419 C 3.960639 24.492877 2.913764 23.409544 2.158556 21.946002 C 1.403348 20.48246 1.028348 18.664752 1.028348 16.48246 C 1.028348 14.305376 1.403348 12.487668 2.158556 11.024126 C 2.913764 9.560584 3.960639 8.472043 5.293973 7.763709 C 6.622098 7.050167 8.163765 6.696001 9.908556 6.696001 C 11.64814 6.696001 13.184598 7.050167 14.512723 7.753293 C 15.840849 8.461626 16.882515 9.550168 17.632515 11.018918 C 18.382515 12.48246 18.757515 14.305376 18.757515 16.48246 C 18.757515 18.664752 18.382515 20.48246 17.632515 21.95121 C 16.882515 23.41996 15.840849 24.503294 14.512723 25.211627 C 13.184598 25.91996 11.64814 26.274127 9.908556 26.274127 Z M 9.908556 23.008502 C 11.517932 23.008502 12.752307 22.487669 13.601265 21.45121 C 14.455432 20.414752 14.877307 18.758502 14.877307 16.48246 C 14.877307 14.211626 14.455432 12.555376 13.601265 11.513709 C 12.752307 10.472043 11.517932 9.951209 9.908556 9.951209 C 8.283556 9.951209 7.043973 10.472043 6.189806 11.513709 C 5.33564 12.555376 4.908556 14.211626 4.908556 16.48246 C 4.908556 18.758502 5.33564 20.414752 6.189806 21.45121 C 7.043973 22.487669 8.283556 23.008502 9.908556 23.008502 Z M 9.908556 23.008502 " stroke="#ffffff" stroke-width="3.733422" stroke-opacity="1" stroke-miterlimit="4"/><path stroke-linecap="butt" transform="matrix(0.75, 0, 0, 0.75, 246.954423, 266.864718)" fill="none" stroke-linejoin="miter" d="M 9.357645 6.966834 C 10.722229 6.966834 11.888896 7.216834 12.852437 7.716834 C 13.821187 8.216834 14.555562 8.914751 15.050354 9.810584 C 15.545146 10.711626 15.789937 11.753293 15.789937 12.940793 C 15.789937 14.133501 15.545146 15.175168 15.050354 16.065793 C 14.555562 16.961626 13.821187 17.659543 12.852437 18.154335 C 11.888896 18.654335 10.722229 18.904335 9.357645 18.904335 L 5.769103 18.904335 L 5.769103 25.998085 L 2.003478 25.998085 L 2.003478 6.966834 Z M 8.862854 15.925168 C 10.956604 15.925168 12.003479 14.930376 12.003479 12.940793 C 12.003479 10.946001 10.956604 9.951209 8.862854 9.951209 L 5.769103 9.951209 L 5.769103 15.925168 Z M 8.862854 15.925168 " stroke="#ffffff" stroke-width="3.733422" stroke-opacity="1" stroke-miterlimit="4"/><path stroke-linecap="butt" transform="matrix(0.75, 0, 0, 0.75, 258.63617, 266.864718)" fill="none" stroke-linejoin="miter" d="M 5.766357 17.643918 L 5.766357 22.852252 L 14.854899 22.852252 L 14.854899 25.998085 L 2.00594 25.998085 L 2.00594 6.966834 L 14.646566 6.966834 L 14.646566 10.117876 L 5.766357 10.117876 L 5.766357 14.571001 L 13.526774 14.571001 L 13.526774 17.643918 Z M 5.766357 17.643918 " stroke="#ffffff" stroke-width="3.733422" stroke-opacity="1" stroke-miterlimit="4"/><path stroke-linecap="butt" transform="matrix(0.75, 0, 0, 0.75, 269.546735, 266.864718)" fill="none" stroke-linejoin="miter" d="M 2.005395 25.998085 L 2.005395 6.966834 L 9.646021 6.966834 C 11.614771 6.966834 13.104354 7.419959 14.104355 8.326209 C 15.104355 9.237668 15.609563 10.487668 15.609563 12.086626 C 15.609563 13.237668 15.312688 14.185585 14.729355 14.91996 C 14.146021 15.659543 13.271021 16.222043 12.104354 16.612668 L 12.104354 16.88871 C 12.703313 17.149126 13.187688 17.534543 13.557479 18.04496 C 13.927271 18.560585 14.27623 19.315793 14.604355 20.32621 L 16.505396 25.998085 L 12.640813 25.998085 L 10.776229 20.310585 C 10.588729 19.737668 10.375188 19.29496 10.135604 18.977252 C 9.896021 18.659543 9.593938 18.430377 9.224146 18.284543 C 8.854354 18.143918 8.375187 18.071002 7.786646 18.071002 L 5.765812 18.071002 L 5.765812 25.998085 Z M 9.192896 15.091835 C 11.010604 15.091835 11.922063 14.242876 11.922063 12.539751 C 11.922063 10.810584 11.010604 9.951209 9.192896 9.951209 L 5.765812 9.951209 L 5.765812 15.091835 Z M 9.192896 15.091835 " stroke="#ffffff" stroke-width="3.733422" stroke-opacity="1" stroke-miterlimit="4"/><path stroke-linecap="butt" transform="matrix(0.75, 0, 0, 0.75, 281.531088, 266.864718)" fill="none" stroke-linejoin="miter" d="M 17.797092 25.998085 L 13.838758 25.998085 L 12.406466 21.612668 L 5.114799 21.612668 L 3.682507 25.998085 L -0.182076 25.998085 L 6.390841 6.966834 L 11.218966 6.966834 Z M 8.578341 10.940793 L 6.130424 18.45121 L 11.3648 18.45121 L 8.906466 10.940793 Z M 8.578341 10.940793 " stroke="#ffffff" stroke-width="3.733422" stroke-opacity="1" stroke-miterlimit="4"/><path stroke-linecap="butt" transform="matrix(0.75, 0, 0, 0.75, 294.081664, 266.864718)" fill="none" stroke-linejoin="miter" d="M 14.786948 6.966834 L 14.786948 10.133501 L 9.292156 10.133501 L 9.292156 25.998085 L 5.547365 25.998085 L 5.547365 10.133501 L 0.0525725 10.133501 L 0.0525725 6.966834 Z M 14.786948 6.966834 " stroke="#ffffff" stroke-width="3.733422" stroke-opacity="1" stroke-miterlimit="4"/><path stroke-linecap="butt" transform="matrix(0.75, 0, 0, 0.75, 304.552924, 266.864718)" fill="none" stroke-linejoin="miter" d="M 2.002352 6.966834 L 5.767977 6.966834 L 5.767977 25.998085 L 2.002352 25.998085 Z M 2.002352 6.966834 " stroke="#ffffff" stroke-width="3.733422" stroke-opacity="1" stroke-miterlimit="4"/><path stroke-linecap="butt" transform="matrix(0.75, 0, 0, 0.75, 309.733285, 266.864718)" fill="none" stroke-linejoin="miter" d="M 10.845204 25.998085 L 6.298329 25.998085 L -0.128755 6.966834 L 3.866037 6.966834 L 8.485829 21.159543 L 8.813954 21.159543 L 13.371246 6.966834 L 17.261871 6.966834 Z M 10.845204 25.998085 " stroke="#ffffff" stroke-width="3.733422" stroke-opacity="1" stroke-miterlimit="4"/><path stroke-linecap="butt" transform="matrix(0.75, 0, 0, 0.75, 321.922659, 266.864718)" fill="none" stroke-linejoin="miter" d="M 5.764581 17.643918 L 5.764581 22.852252 L 14.853123 22.852252 L 14.853123 25.998085 L 2.004164 25.998085 L 2.004164 6.966834 L 14.64479 6.966834 L 14.64479 10.117876 L 5.764581 10.117876 L 5.764581 14.571001 L 13.524998 14.571001 L 13.524998 17.643918 Z M 5.764581 17.643918 " stroke="#ffffff" stroke-width="3.733422" stroke-opacity="1" stroke-miterlimit="4"/><g fill="#dd0808" fill-opacity="1"><g transform="translate(54.085032, 286.364717)"><g><path d="M 4.4375 0 L 1.859375 0 L 1.859375 -14.28125 L 5.546875 -14.28125 L 9.15625 -3.78125 L 9.359375 -3.78125 L 12.953125 -14.28125 L 16.5625 -14.28125 L 16.5625 0 L 13.890625 0 L 13.890625 -9.4375 L 13.640625 -9.46875 L 10.34375 0 L 7.984375 0 L 4.6875 -9.46875 L 4.4375 -9.4375 Z M 4.4375 0 "/></g></g></g><g fill="#dd0808" fill-opacity="1"><g transform="translate(71.145541, 286.364717)"><g><path d="M 7.5625 0.203125 C 5.601562 0.203125 4.144531 -0.257812 3.1875 -1.1875 C 2.238281 -2.125 1.765625 -3.515625 1.765625 -5.359375 L 1.765625 -14.28125 L 4.53125 -14.28125 L 4.53125 -5.375 C 4.53125 -4.332031 4.78125 -3.550781 5.28125 -3.03125 C 5.78125 -2.507812 6.539062 -2.25 7.5625 -2.25 C 9.59375 -2.25 10.609375 -3.289062 10.609375 -5.375 L 10.609375 -14.28125 L 13.375 -14.28125 L 13.375 -5.359375 C 13.375 -3.515625 12.894531 -2.125 11.9375 -1.1875 C 10.988281 -0.257812 9.53125 0.203125 7.5625 0.203125 Z M 7.5625 0.203125 "/></g></g></g><g fill="#dd0808" fill-opacity="1"><g transform="translate(84.916304, 286.364717)"><g><path d="M 4.671875 -14.28125 L 4.671875 -2.359375 L 11.09375 -2.359375 L 11.09375 0 L 1.859375 0 L 1.859375 -14.28125 Z M 4.671875 -14.28125 "/></g></g></g><g fill="#dd0808" fill-opacity="1"><g transform="translate(95.114258, 286.364717)"><g><path d="M 11.453125 -14.28125 L 11.453125 -11.90625 L 7.328125 -11.90625 L 7.328125 0 L 4.515625 0 L 4.515625 -11.90625 L 0.390625 -11.90625 L 0.390625 -14.28125 Z M 11.453125 -14.28125 "/></g></g></g><g fill="#dd0808" fill-opacity="1"><g transform="translate(105.585546, 286.364717)"><g><path d="M 4.671875 0 L 1.859375 0 L 1.859375 -14.28125 L 4.671875 -14.28125 Z M 4.671875 0 "/></g></g></g><g fill="#dd0808" fill-opacity="1"><g transform="translate(110.765922, 286.364717)"><g><path d="M 6.84375 -5.75 L 0.84375 -5.75 L 0.84375 -8.125 L 6.84375 -8.125 Z M 6.84375 -5.75 "/></g></g></g><g fill="#dd0808" fill-opacity="1"><g transform="translate(117.107962, 286.364717)"><g><path d="M 7.375 -14.28125 C 8.394531 -14.28125 9.265625 -14.09375 9.984375 -13.71875 C 10.710938 -13.34375 11.265625 -12.816406 11.640625 -12.140625 C 12.015625 -11.472656 12.203125 -10.691406 12.203125 -9.796875 C 12.203125 -8.898438 12.015625 -8.117188 11.640625 -7.453125 C 11.265625 -6.785156 10.710938 -6.265625 9.984375 -5.890625 C 9.265625 -5.515625 8.394531 -5.328125 7.375 -5.328125 L 4.671875 -5.328125 L 4.671875 0 L 1.859375 0 L 1.859375 -14.28125 Z M 7 -7.5625 C 8.570312 -7.5625 9.359375 -8.304688 9.359375 -9.796875 C 9.359375 -11.296875 8.570312 -12.046875 7 -12.046875 L 4.671875 -12.046875 L 4.671875 -7.5625 Z M 7 -7.5625 "/></g></g></g><g fill="#dd0808" fill-opacity="1"><g transform="translate(128.789702, 286.364717)"><g><path d="M 7.5625 0.203125 C 5.601562 0.203125 4.144531 -0.257812 3.1875 -1.1875 C 2.238281 -2.125 1.765625 -3.515625 1.765625 -5.359375 L 1.765625 -14.28125 L 4.53125 -14.28125 L 4.53125 -5.375 C 4.53125 -4.332031 4.78125 -3.550781 5.28125 -3.03125 C 5.78125 -2.507812 6.539062 -2.25 7.5625 -2.25 C 9.59375 -2.25 10.609375 -3.289062 10.609375 -5.375 L 10.609375 -14.28125 L 13.375 -14.28125 L 13.375 -5.359375 C 13.375 -3.515625 12.894531 -2.125 11.9375 -1.1875 C 10.988281 -0.257812 9.53125 0.203125 7.5625 0.203125 Z M 7.5625 0.203125 "/></g></g></g><g fill="#dd0808" fill-opacity="1"><g transform="translate(142.560465, 286.364717)"><g><path d="M 1.859375 0 L 1.859375 -14.28125 L 7.59375 -14.28125 C 9.070312 -14.28125 10.1875 -13.9375 10.9375 -13.25 C 11.6875 -12.570312 12.0625 -11.632812 12.0625 -10.4375 C 12.0625 -9.570312 11.84375 -8.863281 11.40625 -8.3125 C 10.96875 -7.757812 10.3125 -7.335938 9.4375 -7.046875 L 9.4375 -6.84375 C 9.882812 -6.644531 10.242188 -6.351562 10.515625 -5.96875 C 10.796875 -5.582031 11.0625 -5.015625 11.3125 -4.265625 L 12.734375 0 L 9.828125 0 L 8.4375 -4.265625 C 8.289062 -4.691406 8.128906 -5.023438 7.953125 -5.265625 C 7.773438 -5.503906 7.546875 -5.675781 7.265625 -5.78125 C 6.992188 -5.894531 6.632812 -5.953125 6.1875 -5.953125 L 4.671875 -5.953125 L 4.671875 0 Z M 7.25 -8.1875 C 8.613281 -8.1875 9.296875 -8.820312 9.296875 -10.09375 C 9.296875 -11.394531 8.613281 -12.046875 7.25 -12.046875 L 4.671875 -12.046875 L 4.671875 -8.1875 Z M 7.25 -8.1875 "/></g></g></g><g fill="#dd0808" fill-opacity="1"><g transform="translate(154.544833, 286.364717)"><g><path d="M 7.375 -14.28125 C 8.394531 -14.28125 9.265625 -14.09375 9.984375 -13.71875 C 10.710938 -13.34375 11.265625 -12.816406 11.640625 -12.140625 C 12.015625 -11.472656 12.203125 -10.691406 12.203125 -9.796875 C 12.203125 -8.898438 12.015625 -8.117188 11.640625 -7.453125 C 11.265625 -6.785156 10.710938 -6.265625 9.984375 -5.890625 C 9.265625 -5.515625 8.394531 -5.328125 7.375 -5.328125 L 4.671875 -5.328125 L 4.671875 0 L 1.859375 0 L 1.859375 -14.28125 Z M 7 -7.5625 C 8.570312 -7.5625 9.359375 -8.304688 9.359375 -9.796875 C 9.359375 -11.296875 8.570312 -12.046875 7 -12.046875 L 4.671875 -12.046875 L 4.671875 -7.5625 Z M 7 -7.5625 "/></g></g></g><g fill="#dd0808" fill-opacity="1"><g transform="translate(166.22658, 286.364717)"><g><path d="M 7.78125 0.203125 C 6.476562 0.203125 5.328125 -0.0625 4.328125 -0.59375 C 3.328125 -1.125 2.539062 -1.9375 1.96875 -3.03125 C 1.40625 -4.132812 1.125 -5.503906 1.125 -7.140625 C 1.125 -8.773438 1.40625 -10.140625 1.96875 -11.234375 C 2.539062 -12.328125 3.328125 -13.140625 4.328125 -13.671875 C 5.328125 -14.210938 6.476562 -14.484375 7.78125 -14.484375 C 9.09375 -14.484375 10.242188 -14.21875 11.234375 -13.6875 C 12.234375 -13.15625 13.015625 -12.335938 13.578125 -11.234375 C 14.140625 -10.140625 14.421875 -8.773438 14.421875 -7.140625 C 14.421875 -5.503906 14.140625 -4.132812 13.578125 -3.03125 C 13.015625 -1.9375 12.234375 -1.125 11.234375 -0.59375 C 10.242188 -0.0625 9.09375 0.203125 7.78125 0.203125 Z M 7.78125 -2.25 C 8.988281 -2.25 9.910156 -2.632812 10.546875 -3.40625 C 11.191406 -4.1875 11.515625 -5.429688 11.515625 -7.140625 C 11.515625 -8.847656 11.191406 -10.09375 10.546875 -10.875 C 9.910156 -11.65625 8.988281 -12.046875 7.78125 -12.046875 C 6.5625 -12.046875 5.628906 -11.65625 4.984375 -10.875 C 4.347656 -10.09375 4.03125 -8.847656 4.03125 -7.140625 C 4.03125 -5.429688 4.347656 -4.1875 4.984375 -3.40625 C 5.628906 -2.632812 6.5625 -2.25 7.78125 -2.25 Z M 7.78125 -2.25 "/></g></g></g><g fill="#dd0808" fill-opacity="1"><g transform="translate(180.417107, 286.364717)"><g><path d="M 6.328125 0.203125 C 5.335938 0.203125 4.457031 0.0820312 3.6875 -0.15625 C 2.914062 -0.40625 2.269531 -0.726562 1.75 -1.125 C 1.238281 -1.519531 0.847656 -1.957031 0.578125 -2.4375 L 2.125 -4.328125 L 2.375 -4.328125 C 2.800781 -3.691406 3.34375 -3.179688 4 -2.796875 C 4.664062 -2.421875 5.441406 -2.234375 6.328125 -2.234375 C 7.085938 -2.234375 7.65625 -2.390625 8.03125 -2.703125 C 8.414062 -3.023438 8.609375 -3.46875 8.609375 -4.03125 C 8.609375 -4.375 8.546875 -4.65625 8.421875 -4.875 C 8.304688 -5.101562 8.101562 -5.300781 7.8125 -5.46875 C 7.53125 -5.632812 7.144531 -5.773438 6.65625 -5.890625 L 4.8125 -6.3125 C 3.53125 -6.601562 2.570312 -7.085938 1.9375 -7.765625 C 1.3125 -8.453125 1 -9.335938 1 -10.421875 C 1 -11.222656 1.203125 -11.929688 1.609375 -12.546875 C 2.015625 -13.160156 2.601562 -13.632812 3.375 -13.96875 C 4.144531 -14.3125 5.066406 -14.484375 6.140625 -14.484375 C 7.242188 -14.484375 8.1875 -14.335938 8.96875 -14.046875 C 9.75 -13.753906 10.410156 -13.3125 10.953125 -12.71875 L 9.5625 -10.796875 L 9.3125 -10.796875 C 8.914062 -11.222656 8.457031 -11.539062 7.9375 -11.75 C 7.414062 -11.96875 6.816406 -12.078125 6.140625 -12.078125 C 5.367188 -12.078125 4.78125 -11.9375 4.375 -11.65625 C 3.96875 -11.382812 3.765625 -11.007812 3.765625 -10.53125 C 3.765625 -10.082031 3.90625 -9.722656 4.1875 -9.453125 C 4.476562 -9.179688 4.972656 -8.972656 5.671875 -8.828125 L 7.546875 -8.4375 C 8.929688 -8.144531 9.9375 -7.648438 10.5625 -6.953125 C 11.1875 -6.253906 11.5 -5.335938 11.5 -4.203125 C 11.5 -3.316406 11.304688 -2.539062 10.921875 -1.875 C 10.535156 -1.21875 9.953125 -0.707031 9.171875 -0.34375 C 8.398438 0.0195312 7.453125 0.203125 6.328125 0.203125 Z M 6.328125 0.203125 "/></g></g></g><g fill="#dd0808" fill-opacity="1"><g transform="translate(191.317916, 286.364717)"><g><path d="M 4.671875 -6.265625 L 4.671875 -2.359375 L 11.5 -2.359375 L 11.5 0 L 1.859375 0 L 1.859375 -14.28125 L 11.34375 -14.28125 L 11.34375 -11.921875 L 4.671875 -11.921875 L 4.671875 -8.578125 L 10.5 -8.578125 L 10.5 -6.265625 Z M 4.671875 -6.265625 "/></g></g></g><g fill="#dd0808" fill-opacity="1"><g transform="translate(202.228469, 286.364717)"><g/></g></g><g fill="#dd0808" fill-opacity="1"><g transform="translate(205.5834, 286.364717)"><g><path d="M 7.796875 0.203125 C 6.484375 0.203125 5.328125 -0.0664062 4.328125 -0.609375 C 3.328125 -1.160156 2.539062 -1.984375 1.96875 -3.078125 C 1.40625 -4.179688 1.125 -5.535156 1.125 -7.140625 C 1.125 -8.742188 1.40625 -10.09375 1.96875 -11.1875 C 2.539062 -12.289062 3.328125 -13.113281 4.328125 -13.65625 C 5.328125 -14.207031 6.484375 -14.484375 7.796875 -14.484375 C 9.171875 -14.484375 10.335938 -14.210938 11.296875 -13.671875 C 12.265625 -13.140625 12.953125 -12.320312 13.359375 -11.21875 L 11.296875 -9.96875 L 11.0625 -9.96875 C 10.75 -10.707031 10.332031 -11.238281 9.8125 -11.5625 C 9.289062 -11.882812 8.617188 -12.046875 7.796875 -12.046875 C 6.617188 -12.046875 5.695312 -11.65625 5.03125 -10.875 C 4.363281 -10.09375 4.03125 -8.847656 4.03125 -7.140625 C 4.03125 -5.441406 4.363281 -4.195312 5.03125 -3.40625 C 5.695312 -2.625 6.617188 -2.234375 7.796875 -2.234375 C 9.660156 -2.234375 10.800781 -3.132812 11.21875 -4.9375 L 11.453125 -4.9375 L 13.53125 -3.859375 C 13.144531 -2.503906 12.476562 -1.488281 11.53125 -0.8125 C 10.59375 -0.132812 9.347656 0.203125 7.796875 0.203125 Z M 7.796875 0.203125 "/></g></g></g><g fill="#dd0808" fill-opacity="1"><g transform="translate(218.221792, 286.364717)"><g><path d="M 7.78125 0.203125 C 6.476562 0.203125 5.328125 -0.0625 4.328125 -0.59375 C 3.328125 -1.125 2.539062 -1.9375 1.96875 -3.03125 C 1.40625 -4.132812 1.125 -5.503906 1.125 -7.140625 C 1.125 -8.773438 1.40625 -10.140625 1.96875 -11.234375 C 2.539062 -12.328125 3.328125 -13.140625 4.328125 -13.671875 C 5.328125 -14.210938 6.476562 -14.484375 7.78125 -14.484375 C 9.09375 -14.484375 10.242188 -14.21875 11.234375 -13.6875 C 12.234375 -13.15625 13.015625 -12.335938 13.578125 -11.234375 C 14.140625 -10.140625 14.421875 -8.773438 14.421875 -7.140625 C 14.421875 -5.503906 14.140625 -4.132812 13.578125 -3.03125 C 13.015625 -1.9375 12.234375 -1.125 11.234375 -0.59375 C 10.242188 -0.0625 9.09375 0.203125 7.78125 0.203125 Z M 7.78125 -2.25 C 8.988281 -2.25 9.910156 -2.632812 10.546875 -3.40625 C 11.191406 -4.1875 11.515625 -5.429688 11.515625 -7.140625 C 11.515625 -8.847656 11.191406 -10.09375 10.546875 -10.875 C 9.910156 -11.65625 8.988281 -12.046875 7.78125 -12.046875 C 6.5625 -12.046875 5.628906 -11.65625 4.984375 -10.875 C 4.347656 -10.09375 4.03125 -8.847656 4.03125 -7.140625 C 4.03125 -5.429688 4.347656 -4.1875 4.984375 -3.40625 C 5.628906 -2.632812 6.5625 -2.25 7.78125 -2.25 Z M 7.78125 -2.25 "/></g></g></g><g fill="#dd0808" fill-opacity="1"><g transform="translate(232.412333, 286.364717)"><g><path d="M 7.78125 0.203125 C 6.476562 0.203125 5.328125 -0.0625 4.328125 -0.59375 C 3.328125 -1.125 2.539062 -1.9375 1.96875 -3.03125 C 1.40625 -4.132812 1.125 -5.503906 1.125 -7.140625 C 1.125 -8.773438 1.40625 -10.140625 1.96875 -11.234375 C 2.539062 -12.328125 3.328125 -13.140625 4.328125 -13.671875 C 5.328125 -14.210938 6.476562 -14.484375 7.78125 -14.484375 C 9.09375 -14.484375 10.242188 -14.21875 11.234375 -13.6875 C 12.234375 -13.15625 13.015625 -12.335938 13.578125 -11.234375 C 14.140625 -10.140625 14.421875 -8.773438 14.421875 -7.140625 C 14.421875 -5.503906 14.140625 -4.132812 13.578125 -3.03125 C 13.015625 -1.9375 12.234375 -1.125 11.234375 -0.59375 C 10.242188 -0.0625 9.09375 0.203125 7.78125 0.203125 Z M 7.78125 -2.25 C 8.988281 -2.25 9.910156 -2.632812 10.546875 -3.40625 C 11.191406 -4.1875 11.515625 -5.429688 11.515625 -7.140625 C 11.515625 -8.847656 11.191406 -10.09375 10.546875 -10.875 C 9.910156 -11.65625 8.988281 -12.046875 7.78125 -12.046875 C 6.5625 -12.046875 5.628906 -11.65625 4.984375 -10.875 C 4.347656 -10.09375 4.03125 -8.847656 4.03125 -7.140625 C 4.03125 -5.429688 4.347656 -4.1875 4.984375 -3.40625 C 5.628906 -2.632812 6.5625 -2.25 7.78125 -2.25 Z M 7.78125 -2.25 "/></g></g></g><g fill="#dd0808" fill-opacity="1"><g transform="translate(246.60286, 286.364717)"><g><path d="M 7.375 -14.28125 C 8.394531 -14.28125 9.265625 -14.09375 9.984375 -13.71875 C 10.710938 -13.34375 11.265625 -12.816406 11.640625 -12.140625 C 12.015625 -11.472656 12.203125 -10.691406 12.203125 -9.796875 C 12.203125 -8.898438 12.015625 -8.117188 11.640625 -7.453125 C 11.265625 -6.785156 10.710938 -6.265625 9.984375 -5.890625 C 9.265625 -5.515625 8.394531 -5.328125 7.375 -5.328125 L 4.671875 -5.328125 L 4.671875 0 L 1.859375 0 L 1.859375 -14.28125 Z M 7 -7.5625 C 8.570312 -7.5625 9.359375 -8.304688 9.359375 -9.796875 C 9.359375 -11.296875 8.570312 -12.046875 7 -12.046875 L 4.671875 -12.046875 L 4.671875 -7.5625 Z M 7 -7.5625 "/></g></g></g><g fill="#dd0808" fill-opacity="1"><g transform="translate(258.284607, 286.364717)"><g><path d="M 4.671875 -6.265625 L 4.671875 -2.359375 L 11.5 -2.359375 L 11.5 0 L 1.859375 0 L 1.859375 -14.28125 L 11.34375 -14.28125 L 11.34375 -11.921875 L 4.671875 -11.921875 L 4.671875 -8.578125 L 10.5 -8.578125 L 10.5 -6.265625 Z M 4.671875 -6.265625 "/></g></g></g><g fill="#dd0808" fill-opacity="1"><g transform="translate(269.195172, 286.364717)"><g><path d="M 1.859375 0 L 1.859375 -14.28125 L 7.59375 -14.28125 C 9.070312 -14.28125 10.1875 -13.9375 10.9375 -13.25 C 11.6875 -12.570312 12.0625 -11.632812 12.0625 -10.4375 C 12.0625 -9.570312 11.84375 -8.863281 11.40625 -8.3125 C 10.96875 -7.757812 10.3125 -7.335938 9.4375 -7.046875 L 9.4375 -6.84375 C 9.882812 -6.644531 10.242188 -6.351562 10.515625 -5.96875 C 10.796875 -5.582031 11.0625 -5.015625 11.3125 -4.265625 L 12.734375 0 L 9.828125 0 L 8.4375 -4.265625 C 8.289062 -4.691406 8.128906 -5.023438 7.953125 -5.265625 C 7.773438 -5.503906 7.546875 -5.675781 7.265625 -5.78125 C 6.992188 -5.894531 6.632812 -5.953125 6.1875 -5.953125 L 4.671875 -5.953125 L 4.671875 0 Z M 7.25 -8.1875 C 8.613281 -8.1875 9.296875 -8.820312 9.296875 -10.09375 C 9.296875 -11.394531 8.613281 -12.046875 7.25 -12.046875 L 4.671875 -12.046875 L 4.671875 -8.1875 Z M 7.25 -8.1875 "/></g></g></g><g fill="#dd0808" fill-opacity="1"><g transform="translate(281.179526, 286.364717)"><g><path d="M 13.703125 0 L 10.734375 0 L 9.65625 -3.296875 L 4.1875 -3.296875 L 3.109375 0 L 0.21875 0 L 5.140625 -14.28125 L 8.765625 -14.28125 Z M 6.78125 -11.296875 L 4.953125 -5.671875 L 8.875 -5.671875 L 7.03125 -11.296875 Z M 6.78125 -11.296875 "/></g></g></g><g fill="#dd0808" fill-opacity="1"><g transform="translate(293.730102, 286.364717)"><g><path d="M 11.453125 -14.28125 L 11.453125 -11.90625 L 7.328125 -11.90625 L 7.328125 0 L 4.515625 0 L 4.515625 -11.90625 L 0.390625 -11.90625 L 0.390625 -14.28125 Z M 11.453125 -14.28125 "/></g></g></g><g fill="#dd0808" fill-opacity="1"><g transform="translate(304.201361, 286.364717)"><g><path d="M 4.671875 0 L 1.859375 0 L 1.859375 -14.28125 L 4.671875 -14.28125 Z M 4.671875 0 "/></g></g></g><g fill="#dd0808" fill-opacity="1"><g transform="translate(309.381722, 286.364717)"><g><path d="M 8.484375 0 L 5.078125 0 L 0.25 -14.28125 L 3.25 -14.28125 L 6.71875 -3.640625 L 6.96875 -3.640625 L 10.375 -14.28125 L 13.296875 -14.28125 Z M 8.484375 0 "/></g></g></g><g fill="#dd0808" fill-opacity="1"><g transform="translate(321.571096, 286.364717)"><g><path d="M 4.671875 -6.265625 L 4.671875 -2.359375 L 11.5 -2.359375 L 11.5 0 L 1.859375 0 L 1.859375 -14.28125 L 11.34375 -14.28125 L 11.34375 -11.921875 L 4.671875 -11.921875 L 4.671875 -8.578125 L 10.5 -8.578125 L 10.5 -6.265625 Z M 4.671875 -6.265625 "/></g></g></g></svg>